<svg width="20" height="20" viewBox="0 0 20 20" fill="none" xmlns="http://www.w3.org/2000/svg">
<path fill-rule="evenodd" clip-rule="evenodd" d="M10.0007 19.1663C15.0633 19.1663 19.1673 15.0623 19.1673 9.99968C19.1673 4.93707 15.0633 0.833008 10.0007 0.833008C4.93804 0.833007 0.833985 4.93706 0.833984 9.99967C0.833984 15.0623 4.93804 19.1663 10.0007 19.1663ZM10.0007 14.1663C9.54041 14.1663 9.16732 13.7932 9.16732 13.333V8.67819L7.25657 10.5889C6.93114 10.9144 6.4035 10.9144 6.07806 10.5889C5.75262 10.2635 5.75262 9.73586 6.07806 9.41042L9.4114 6.07709C9.73683 5.75165 10.2645 5.75165 10.5899 6.07709L13.9232 9.41042C14.2487 9.73586 14.2487 10.2635 13.9232 10.5889C13.5978 10.9144 13.0702 10.9144 12.7447 10.5889L10.834 8.67819V13.333C10.834 13.7932 10.4609 14.1663 10.0007 14.1663Z" fill="#BCB6B8"/>
</svg>
