<svg width="34" height="34" viewBox="0 0 34 34" fill="none" xmlns="http://www.w3.org/2000/svg">
<rect x="1" y="1" width="32" height="32" rx="16" stroke="#5138F6"/>
<path fill-rule="evenodd" clip-rule="evenodd" d="M11.6367 11.6347C11.9491 11.3223 12.4556 11.3223 12.768 11.6347L17.0023 15.869L21.2367 11.6347C21.5491 11.3223 22.0556 11.3223 22.368 11.6347C22.6804 11.9471 22.6804 12.4537 22.368 12.7661L18.1337 17.0004L22.368 21.2347C22.6804 21.5471 22.6804 22.0537 22.368 22.3661C22.0556 22.6785 21.5491 22.6785 21.2367 22.3661L17.0023 18.1318L12.768 22.3661C12.4556 22.6785 11.9491 22.6785 11.6367 22.3661C11.3242 22.0537 11.3242 21.5471 11.6367 21.2347L15.871 17.0004L11.6367 12.7661C11.3242 12.4537 11.3242 11.9471 11.6367 11.6347Z" fill="#5138F6"/>
</svg>
