<svg width="50" height="50" viewBox="0 0 50 50" fill="none" xmlns="http://www.w3.org/2000/svg">
<g id="Group">
<path id="Vector" d="M29.1657 4.16651C32.9781 4.16469 36.676 5.46998 39.6425 7.86468C42.609 10.2594 44.6648 13.5987 45.4671 17.3258C46.2694 21.0529 45.7697 24.9424 44.0512 28.3455C42.3328 31.7487 39.4996 34.4599 36.024 36.0269C34.9131 38.483 33.223 40.6329 31.0987 42.2924C28.9745 43.9519 26.4794 45.0713 23.8274 45.5547C21.1755 46.0381 18.4459 45.8711 15.8727 45.0679C13.2995 44.2648 10.9595 42.8494 9.05343 40.9434C7.14733 39.0373 5.73202 36.6973 4.92885 34.1241C4.12569 31.5509 3.95865 28.8213 4.44207 26.1694C4.92549 23.5174 6.04493 21.0223 7.70439 18.898C9.36385 16.7738 11.5138 15.0837 13.9699 13.9728C15.291 11.0496 17.4273 8.56963 20.1227 6.83027C22.818 5.09091 25.9579 4.16601 29.1657 4.16651V4.16651ZM20.8324 16.6665C19.1908 16.6665 17.5654 16.9898 16.0488 17.618C14.5323 18.2462 13.1543 19.1669 11.9935 20.3277C10.8328 21.4884 9.91205 22.8664 9.28387 24.383C8.65569 25.8995 8.33236 27.525 8.33236 29.1665C8.33236 30.808 8.65569 32.4335 9.28387 33.95C9.91205 35.4666 10.8328 36.8446 11.9935 38.0053C13.1543 39.1661 14.5323 40.0868 16.0488 40.715C17.5654 41.3432 19.1908 41.6665 20.8324 41.6665C24.1476 41.6665 27.327 40.3495 29.6712 38.0053C32.0154 35.6611 33.3324 32.4817 33.3324 29.1665C33.3324 25.8513 32.0154 22.6719 29.6712 20.3277C27.327 17.9835 24.1476 16.6665 20.8324 16.6665ZM22.9157 18.7498V20.8332H27.0824V24.9998H18.749C18.4887 24.9994 18.2377 25.0964 18.0453 25.2717C17.853 25.4471 17.7332 25.6881 17.7097 25.9474C17.6862 26.2066 17.7606 26.4653 17.9182 26.6724C18.0759 26.8795 18.3054 27.0201 18.5615 27.0665L18.749 27.0832H22.9157C24.297 27.0832 25.6218 27.6319 26.5985 28.6087C27.5753 29.5854 28.124 30.9102 28.124 32.2915C28.124 33.6728 27.5753 34.9976 26.5985 35.9744C25.6218 36.9511 24.297 37.4998 22.9157 37.4998V39.5832H18.749V37.4998H14.5824V33.3332H22.9157C23.176 33.3337 23.4271 33.2367 23.6194 33.0613C23.8118 32.8859 23.9315 32.6449 23.955 32.3856C23.9785 32.1264 23.9041 31.8677 23.7465 31.6606C23.5888 31.4535 23.3593 31.3129 23.1032 31.2665L22.9157 31.2498H18.749C17.3677 31.2498 16.0429 30.7011 15.0662 29.7244C14.0894 28.7476 13.5407 27.4228 13.5407 26.0415C13.5407 24.6602 14.0894 23.3354 15.0662 22.3587C16.0429 21.3819 17.3677 20.8332 18.749 20.8332V18.7498H22.9157ZM29.1657 8.33317C27.4005 8.33111 25.6549 8.70388 24.0445 9.42684C22.4341 10.1498 20.9955 11.2065 19.824 12.5269C22.1787 12.384 24.537 12.7425 26.7428 13.5789C28.9486 14.4153 30.9517 15.7103 32.6198 17.3785C34.2878 19.0467 35.5826 21.05 36.4187 23.2559C37.2548 25.4619 37.6131 27.8201 37.4699 30.1748C39.3641 28.4907 40.7015 26.2706 41.3049 23.8088C41.9083 21.3471 41.749 18.7601 40.8483 16.3909C39.9475 14.0218 38.3478 11.9824 36.2614 10.5433C34.1749 9.10427 31.7003 8.33347 29.1657 8.33317V8.33317Z" fill="#5138F6"/>
</g>
</svg>
