<svg width="18" height="19" viewBox="0 0 18 19" fill="none" xmlns="http://www.w3.org/2000/svg">
<g id="Group">
<path id="Vector" d="M13.4995 5.75H15.7495C15.9484 5.75 16.1392 5.82902 16.2798 5.96967C16.4205 6.11032 16.4995 6.30109 16.4995 6.5V15.5C16.4995 15.6989 16.4205 15.8897 16.2798 16.0303C16.1392 16.171 15.9484 16.25 15.7495 16.25H2.24951C2.0506 16.25 1.85983 16.171 1.71918 16.0303C1.57853 15.8897 1.49951 15.6989 1.49951 15.5V3.5C1.49951 3.30109 1.57853 3.11032 1.71918 2.96967C1.85983 2.82902 2.0506 2.75 2.24951 2.75H13.4995V5.75ZM2.99951 7.25V14.75H14.9995V7.25H2.99951ZM2.99951 4.25V5.75H11.9995V4.25H2.99951ZM11.2495 10.25H13.4995V11.75H11.2495V10.25Z" fill="#5138F6"/>
</g>
</svg>
