<svg width="20" height="20" viewBox="0 0 20 20" fill="none" xmlns="http://www.w3.org/2000/svg">
<g id="ic:sharp-copyright">
<path id="Vector" d="M8.39984 9.04996C8.4415 8.77496 8.53317 8.53329 8.64984 8.32496C8.7665 8.11662 8.93317 7.94162 9.1415 7.80829C9.3415 7.68329 9.5915 7.62496 9.89984 7.61663C10.0915 7.62496 10.2665 7.65829 10.4248 7.72496C10.5915 7.79996 10.7415 7.89996 10.8582 8.02496C10.9748 8.14996 11.0665 8.29996 11.1415 8.46662C11.2165 8.63329 11.2498 8.81663 11.2582 8.99996H12.7498C12.7332 8.60829 12.6582 8.24996 12.5165 7.92496C12.3748 7.59996 12.1832 7.31663 11.9332 7.08329C11.6832 6.84996 11.3832 6.66663 11.0332 6.53329C10.6832 6.39996 10.2998 6.34163 9.87484 6.34163C9.33317 6.34163 8.85817 6.43329 8.45817 6.62496C8.05817 6.81663 7.72484 7.06663 7.45817 7.39162C7.1915 7.71662 6.9915 8.09162 6.8665 8.52496C6.7415 8.95829 6.6665 9.40829 6.6665 9.89162V10.1166C6.6665 10.6 6.73317 11.05 6.85817 11.4833C6.98317 11.9166 7.18317 12.2916 7.44984 12.6083C7.7165 12.925 8.04984 13.1833 8.44984 13.3666C8.84984 13.55 9.32484 13.65 9.8665 13.65C10.2582 13.65 10.6248 13.5833 10.9665 13.4583C11.3082 13.3333 11.6082 13.1583 11.8665 12.9333C12.1248 12.7083 12.3332 12.45 12.4832 12.15C12.6332 11.85 12.7248 11.5333 12.7332 11.1916H11.2415C11.2332 11.3666 11.1915 11.525 11.1165 11.675C11.0415 11.825 10.9415 11.95 10.8165 12.0583C10.6915 12.1666 10.5498 12.25 10.3832 12.3083C10.2248 12.3666 10.0582 12.3833 9.88317 12.3916C9.58317 12.3833 9.33317 12.325 9.1415 12.2C8.93317 12.0666 8.7665 11.8916 8.64984 11.6833C8.53317 11.475 8.4415 11.225 8.39984 10.95C8.35817 10.675 8.33317 10.3916 8.33317 10.1166V9.89162C8.33317 9.59996 8.35817 9.32496 8.39984 9.04996ZM9.99984 1.66663C5.39984 1.66663 1.6665 5.39996 1.6665 9.99996C1.6665 14.6 5.39984 18.3333 9.99984 18.3333C14.5998 18.3333 18.3332 14.6 18.3332 9.99996C18.3332 5.39996 14.5998 1.66663 9.99984 1.66663ZM9.99984 16.6666C6.32484 16.6666 3.33317 13.675 3.33317 9.99996C3.33317 6.32496 6.32484 3.33329 9.99984 3.33329C13.6748 3.33329 16.6665 6.32496 16.6665 9.99996C16.6665 13.675 13.6748 16.6666 9.99984 16.6666Z" fill="#C5C8BA"/>
</g>
</svg>
