<svg width="28" height="28" viewBox="0 0 28 28" fill="none" xmlns="http://www.w3.org/2000/svg">
<g id="Group">
<path id="Vector" d="M11.7553 12.8334C12.4553 12.8334 13.0223 13.3584 13.0095 14C13.0095 14.6417 12.4565 15.1667 11.7553 15.1667C11.067 15.1667 10.5 14.6417 10.5 14C10.5 13.3584 11.0542 12.8334 11.7553 12.8334ZM16.2447 12.8334C16.9458 12.8334 17.5 13.3584 17.5 14C17.5 14.6417 16.9458 15.1667 16.2447 15.1667C15.5563 15.1667 14.9905 14.6417 14.9905 14C14.9905 13.3584 15.5435 12.8334 16.2447 12.8334ZM22.0395 2.33337C23.3963 2.33337 24.5 3.46037 24.5 4.85687V26.8334L21.9205 24.5059L20.468 23.1339L18.9315 21.6755L19.5685 23.9424H5.9605C4.60367 23.9424 3.5 22.8154 3.5 21.4189V4.85687C3.5 3.46037 4.60367 2.33337 5.9605 2.33337H22.0383H22.0395ZM17.4078 18.3319C20.0597 18.2467 21.0805 16.4699 21.0805 16.4699C21.0805 12.5254 19.3515 9.32754 19.3515 9.32754C17.6248 8.00571 15.9798 8.04187 15.9798 8.04187L15.8118 8.23787C17.8523 8.87487 18.7997 9.79421 18.7997 9.79421C17.6856 9.16653 16.4577 8.76677 15.1877 8.61821C14.382 8.52721 13.5683 8.53505 12.7645 8.64154C12.6922 8.64154 12.6315 8.65437 12.5603 8.66604C12.1403 8.70337 11.1195 8.86204 9.83617 9.43837C9.39283 9.64604 9.128 9.79421 9.128 9.79421C9.128 9.79421 10.1243 8.82587 12.2838 8.18887L12.1637 8.04187C12.1637 8.04187 10.5198 8.00571 8.792 9.32871C8.792 9.32871 7.06417 12.5254 7.06417 16.4699C7.06417 16.4699 8.07217 18.2455 10.724 18.3319C10.724 18.3319 11.1673 17.7812 11.529 17.3157C10.0042 16.849 9.429 15.869 9.429 15.869C9.429 15.869 9.548 15.9554 9.76383 16.0779C9.7755 16.0895 9.78717 16.1024 9.81167 16.114C9.84783 16.1397 9.884 16.1514 9.92017 16.1759C10.22 16.3474 10.5198 16.4815 10.7952 16.5924C11.2875 16.7884 11.8755 16.9844 12.5603 17.1197C13.5862 17.3208 14.641 17.3248 15.6683 17.1314C16.2667 17.0246 16.8506 16.848 17.4078 16.6052C17.8278 16.4454 18.2957 16.212 18.788 15.8819C18.788 15.8819 18.1883 16.8864 16.6157 17.3402C16.9762 17.8057 17.409 18.3319 17.409 18.3319H17.4078Z" fill="white"/>
</g>
</svg>
