<svg width="16" height="17" viewBox="0 0 16 17" fill="none" xmlns="http://www.w3.org/2000/svg">
<rect y="0.5" width="16" height="16" rx="8" fill="url(#paint0_linear_8019_25024)"/>
<g clip-path="url(#clip0_8019_25024)">
<path d="M9.66602 5.99967H10.9993C11.0878 5.99967 11.1725 6.03479 11.2351 6.09731C11.2976 6.15982 11.3327 6.2446 11.3327 6.33301V11.6663C11.3327 11.7547 11.2976 11.8395 11.2351 11.902C11.1725 11.9646 11.0878 11.9997 10.9993 11.9997H4.99935C4.91094 11.9997 4.82616 11.9646 4.76365 11.902C4.70113 11.8395 4.66602 11.7547 4.66602 11.6663V6.33301C4.66602 6.2446 4.70113 6.15982 4.76365 6.09731C4.82616 6.03479 4.91094 5.99967 4.99935 5.99967H6.33268V5.33301H6.99935V5.99967H8.99935V5.33301H9.66602V5.99967ZM8.99935 6.66634H6.99935V7.33301H6.33268V6.66634H5.33268V7.99967H10.666V6.66634H9.66602V7.33301H8.99935V6.66634ZM10.666 8.66634H5.33268V11.333H10.666V8.66634ZM5.99935 9.66634H6.66602V10.333H5.99935V9.66634ZM7.33268 9.66634H9.99935V10.333H7.33268V9.66634Z" fill="white"/>
</g>
<defs>
<linearGradient id="paint0_linear_8019_25024" x1="-0.212154" y1="0.287846" x2="15.2846" y2="15.7846" gradientUnits="userSpaceOnUse">
<stop stop-color="#00A9B7"/>
<stop offset="0.5027" stop-color="#4C32F2"/>
<stop offset="1" stop-color="#9F00BE"/>
</linearGradient>
<clipPath id="clip0_8019_25024">
<rect width="8" height="8" fill="white" transform="translate(4 5)"/>
</clipPath>
</defs>
</svg>
