<svg width="19" height="19" viewBox="0 0 19 19" fill="none" xmlns="http://www.w3.org/2000/svg">
<g clip-path="url(#clip0_7104_64982)">
<path d="M9.50097 2.75C13.545 2.75 16.9095 5.66 17.6152 9.5C16.9102 13.34 13.545 16.25 9.50097 16.25C5.45697 16.25 2.09247 13.34 1.38672 9.5C2.09172 5.66 5.45697 2.75 9.50097 2.75ZM9.50097 14.75C11.0306 14.7497 12.5148 14.2301 13.7106 13.2764C14.9065 12.3226 15.7431 10.9912 16.0837 9.5C15.7419 8.00998 14.9047 6.68 13.7089 5.72752C12.5132 4.77504 11.0297 4.2564 9.50097 4.2564C7.97224 4.2564 6.48874 4.77504 5.293 5.72752C4.09727 6.68 3.26004 8.00998 2.91822 9.5C3.25879 10.9912 4.09547 12.3226 5.29133 13.2764C6.48718 14.2301 7.97137 14.7497 9.50097 14.75ZM9.50097 12.875C8.60586 12.875 7.74742 12.5194 7.11448 11.8865C6.48155 11.2535 6.12597 10.3951 6.12597 9.5C6.12597 8.60489 6.48155 7.74645 7.11448 7.11351C7.74742 6.48058 8.60586 6.125 9.50097 6.125C10.3961 6.125 11.2545 6.48058 11.8875 7.11351C12.5204 7.74645 12.876 8.60489 12.876 9.5C12.876 10.3951 12.5204 11.2535 11.8875 11.8865C11.2545 12.5194 10.3961 12.875 9.50097 12.875ZM9.50097 11.375C9.99825 11.375 10.4752 11.1775 10.8268 10.8258C11.1784 10.4742 11.376 9.99728 11.376 9.5C11.376 9.00272 11.1784 8.52581 10.8268 8.17417C10.4752 7.82254 9.99825 7.625 9.50097 7.625C9.00369 7.625 8.52677 7.82254 8.17514 8.17417C7.82351 8.52581 7.62597 9.00272 7.62597 9.5C7.62597 9.99728 7.82351 10.4742 8.17514 10.8258C8.52677 11.1775 9.00369 11.375 9.50097 11.375Z" fill="#22005D"/>
</g>
<defs>
<clipPath id="clip0_7104_64982">
<rect width="18" height="18" fill="white" transform="translate(0.5 0.5)"/>
</clipPath>
</defs>
</svg>
