<svg width="20" height="20" viewBox="0 0 20 20" fill="none" xmlns="http://www.w3.org/2000/svg">
<g id="Group">
<path id="Vector" d="M11.3128 14.3927L7.05444 12.0702C6.64568 12.4759 6.12595 12.7516 5.56076 12.8624C4.99557 12.9732 4.41023 12.9141 3.87854 12.6928C3.34684 12.4714 2.89259 12.0975 2.57306 11.6183C2.25352 11.1392 2.08301 10.5761 2.08301 10.0002C2.08301 9.42423 2.25352 8.86118 2.57306 8.382C2.89259 7.90282 3.34684 7.52898 3.87854 7.30759C4.41023 7.0862 4.99557 7.02719 5.56076 7.13798C6.12595 7.24878 6.64568 7.52443 7.05444 7.93017L11.3128 5.60767C11.1667 4.92245 11.2722 4.20756 11.6099 3.59372C11.9477 2.97988 12.4951 2.50812 13.152 2.2647C13.809 2.02129 14.5316 2.02249 15.1878 2.26808C15.8439 2.51367 16.3898 2.98725 16.7254 3.6022C17.0611 4.21716 17.1642 4.9324 17.0159 5.61713C16.8676 6.30187 16.4778 6.91033 15.9177 7.33126C15.3576 7.75218 14.6648 7.95744 13.9658 7.9095C13.2668 7.86156 12.6085 7.56363 12.1111 7.07017L7.85277 9.39267C7.93771 9.79322 7.93771 10.2071 7.85277 10.6077L12.1111 12.9302C12.6085 12.4367 13.2668 12.1388 13.9658 12.0908C14.6648 12.0429 15.3576 12.2482 15.9177 12.6691C16.4778 13.09 16.8676 13.6985 17.0159 14.3832C17.1642 15.0679 17.0611 15.7832 16.7254 16.3981C16.3898 17.0131 15.8439 17.4867 15.1878 17.7323C14.5316 17.9779 13.809 17.9791 13.152 17.7356C12.4951 17.4922 11.9477 17.0205 11.6099 16.4066C11.2722 15.7928 11.1667 15.0779 11.3128 14.3927Z" fill="#5138F6"/>
</g>
</svg>
