
<svg width="39" height="39" viewBox="0 0 39 39" fill="none" xmlns="http://www.w3.org/2000/svg">
<circle cx="19.5" cy="19.5" r="19.5" fill="white"/>
<g clip-path="url(#clip0_51_8987)">
<path d="M21.3137 24.3917L17.0554 22.0692C16.6467 22.4749 16.1269 22.7506 15.5617 22.8614C14.9965 22.9722 14.4112 22.9132 13.8795 22.6918C13.3478 22.4704 12.8936 22.0965 12.574 21.6174C12.2545 21.1382 12.084 20.5751 12.084 19.9992C12.084 19.4233 12.2545 18.8602 12.574 18.381C12.8936 17.9018 13.3478 17.528 13.8795 17.3066C14.4112 17.0852 14.9965 17.0262 15.5617 17.137C16.1269 17.2478 16.6467 17.5234 17.0554 17.9292L21.3137 15.6067C21.1677 14.9215 21.2732 14.2066 21.6109 13.5927C21.9486 12.9789 22.496 12.5071 23.153 12.2637C23.81 12.0203 24.5326 12.0215 25.1888 12.2671C25.8449 12.5127 26.3907 12.9863 26.7264 13.6012C27.0621 14.2162 27.1652 14.9314 27.0169 15.6162C26.8686 16.3009 26.4787 16.9094 25.9187 17.3303C25.3586 17.7512 24.6657 17.9565 23.9668 17.9085C23.2678 17.8606 22.6094 17.5626 22.1121 17.0692L17.8537 19.3917C17.9387 19.7922 17.9387 20.2062 17.8537 20.6067L22.1121 22.9292C22.6094 22.4357 23.2678 22.1378 23.9668 22.0899C24.6657 22.0419 25.3586 22.2472 25.9187 22.6681C26.4787 23.089 26.8686 23.6975 27.0169 24.3822C27.1652 25.067 27.0621 25.7822 26.7264 26.3972C26.3907 27.0121 25.8449 27.4857 25.1888 27.7313C24.5326 27.9769 23.81 27.9781 23.153 27.7347C22.496 27.4913 21.9486 27.0195 21.6109 26.4057C21.2732 25.7918 21.1677 25.0769 21.3137 24.3917Z" fill="#5138F6"/>
</g>
<defs>
<clipPath id="clip0_51_8987">
<rect width="20" height="20" fill="white" transform="translate(10 10)"/>
</clipPath>
</defs>
</svg>
