<svg width="150" height="40" viewBox="0 0 150 40" fill="none" xmlns="http://www.w3.org/2000/svg">
<g id="Group 40100">
<g id="Group">
<path id="Vector" d="M28.4164 26.6647H16.8768L12.877 13.3309H25.2165C25.805 13.3309 26.325 13.7166 26.4936 14.2823L29.6935 24.9476C29.9506 25.8019 29.3106 26.6647 28.4164 26.6647Z" fill="url(#paint0_linear_53_4915)"/>
<path id="Vector_2" d="M16.3596 1.71708L12.874 13.3338H1.33442C0.440173 13.3338 -0.199803 12.4738 0.0573303 11.6167L3.25721 0.951392C3.42577 0.388557 3.94575 0 4.5343 0H15.0825C15.9767 0 16.6167 0.859967 16.3596 1.71708Z" fill="url(#paint1_linear_53_4915)"/>
<path id="Vector_3" d="M4.5343 26.6647H16.8738L13.1597 39.0471C12.9911 39.6099 12.4711 39.9984 11.8826 39.9984H1.33442C0.440173 39.9984 -0.199803 39.1385 0.0573303 38.2814L3.25721 27.6161C3.42577 27.0532 3.94575 26.6647 4.5343 26.6647Z" fill="url(#paint2_linear_53_4915)"/>
</g>
<g id="Group_2">
<g id="Group_3">
<path id="Vector_4" d="M66.486 32.5331C64.3432 32.5331 62.5204 32.0988 61.0148 31.2274C59.5091 30.356 58.3663 29.2132 57.5835 27.7961C56.8007 26.379 56.4121 24.8334 56.4121 23.162V22.3935C56.4121 20.6764 56.8178 19.0965 57.6349 17.6565C58.4492 16.2166 59.6091 15.068 61.1148 14.2081C62.6204 13.351 64.4118 12.9196 66.486 12.9196C68.5602 12.9196 70.3573 13.3481 71.8744 14.2081C73.3915 15.068 74.5571 16.2166 75.3714 17.6565C76.1856 19.0965 76.5942 20.6735 76.5942 22.3935V23.162C76.5942 24.8362 76.1971 26.3819 75.4057 27.7961C74.6143 29.2132 73.4686 30.356 71.9744 31.2274C70.4801 32.0988 68.6488 32.5331 66.486 32.5331ZM66.486 28.0161C68.026 28.0161 69.2031 27.519 70.0173 26.5276C70.8316 25.5362 71.2401 24.2905 71.2401 22.7963C71.2401 21.3021 70.823 19.9793 69.9859 18.965C69.1488 17.9508 67.9831 17.4422 66.4889 17.4422C64.9946 17.4422 63.8347 17.9508 63.009 18.965C62.1833 19.9821 61.7719 21.2564 61.7719 22.7963C61.7719 24.3363 62.1747 25.5362 62.9776 26.5276C63.7804 27.5219 64.9518 28.0161 66.4917 28.0161H66.486Z" fill="black"/>
<path id="Vector_5" d="M78.7832 31.896V13.5567H83.0345V19.7821C83.2345 17.7079 83.8773 16.1109 84.9601 14.9966C86.0429 13.8824 87.52 13.3224 89.3942 13.3224H90.0971V17.9422H88.7571C87.2629 17.9422 86.1172 18.3451 85.3258 19.1479C84.5344 19.9507 84.1373 21.0878 84.1373 22.562V31.8988H78.7832V31.896Z" fill="black"/>
<path id="Vector_6" d="M99.9674 32.5331C98.4046 32.5331 97.0275 32.2645 95.8332 31.7303C94.639 31.196 93.6419 30.476 92.8391 29.5704C92.0362 28.6647 91.4334 27.6504 91.0306 26.5248C90.6277 25.3991 90.4277 24.2449 90.4277 23.062V22.3935C90.4277 21.1878 90.6277 20.0164 91.0306 18.8793C91.4334 17.7422 92.0334 16.7251 92.8391 15.8337C93.6419 14.9423 94.619 14.2338 95.7675 13.7081C96.9161 13.1853 98.2503 12.9224 99.7674 12.9224C101.73 12.9224 103.387 13.3624 104.739 14.2452C106.087 15.1252 107.119 16.2823 107.833 17.708C108.547 19.1365 108.904 20.6764 108.904 22.3278V24.1363H95.4818C95.659 25.3848 96.1132 26.3733 96.8361 27.099C97.5617 27.8247 98.6046 28.1876 99.9645 28.1876C100.924 28.1876 101.722 28.0047 102.359 27.6362C102.996 27.2676 103.424 26.7933 103.647 26.2133H108.567C108.164 28.0876 107.201 29.6104 105.673 30.7817C104.144 31.9531 102.242 32.5388 99.9674 32.5388V32.5331ZM99.7674 17.2708C98.6074 17.2708 97.6646 17.5994 96.9389 18.2594C96.2132 18.9165 95.7504 19.8593 95.5504 21.0878H103.784C103.604 19.8622 103.176 18.9193 102.496 18.2594C101.816 17.6022 100.907 17.2708 99.7674 17.2708Z" fill="black"/>
<path id="Vector_7" d="M120.806 32.5331C118.664 32.5331 116.841 32.0988 115.335 31.2274C113.829 30.356 112.687 29.2132 111.904 27.7961C111.121 26.379 110.732 24.8334 110.732 23.162V22.3935C110.732 20.6764 111.138 19.0965 111.955 17.6565C112.769 16.2166 113.929 15.068 115.435 14.2081C116.941 13.351 118.732 12.9196 120.806 12.9196C122.881 12.9196 124.678 13.3481 126.195 14.2081C127.712 15.068 128.877 16.2166 129.692 17.6565C130.506 19.0965 130.915 20.6735 130.915 22.3935V23.162C130.915 24.8362 130.517 26.3819 129.726 27.7961C128.935 29.2132 127.789 30.356 126.295 31.2274C124.8 32.0988 122.969 32.5331 120.806 32.5331ZM120.806 28.0161C122.346 28.0161 123.523 27.519 124.338 26.5276C125.152 25.5362 125.56 24.2905 125.56 22.7963C125.56 21.3021 125.143 19.9793 124.306 18.965C123.469 17.9508 122.303 17.4422 120.809 17.4422C119.315 17.4422 118.155 17.9508 117.329 18.965C116.504 19.9821 116.092 21.2564 116.092 22.7963C116.092 24.3363 116.495 25.5362 117.298 26.5276C118.101 27.5219 119.272 28.0161 120.812 28.0161H120.806Z" fill="black"/>
<path id="Vector_8" d="M132.732 31.896V13.5567H136.984V18.2422C137.721 14.7395 139.784 12.9882 143.175 12.9882H143.409C145.529 12.9882 147.158 13.6853 148.295 15.0795C149.432 16.4737 150 18.5879 150 21.4221V31.8989H144.646V21.1221C144.646 20.1422 144.355 19.3365 143.775 18.7137C143.195 18.0908 142.415 17.7765 141.432 17.7765C140.449 17.7765 139.618 18.0937 139.006 18.7308C138.392 19.3679 138.087 20.1993 138.087 21.225V31.9017H132.732V31.896Z" fill="black"/>
</g>
<path id="Vector_9" d="M54.6301 7.46545H39.9707V31.896H45.4591V22.0563H54.2273V17.5051H45.4591V13.2509L44.2248 12.0167H45.4591H54.6301V7.46545Z" fill="black"/>
</g>
</g>
<defs>
<linearGradient id="paint0_linear_53_4915" x1="4.88297" y1="-12.1824" x2="30.8906" y2="38.33" gradientUnits="userSpaceOnUse">
<stop stop-color="#00A9B7"/>
<stop offset="0.5" stop-color="#4C32F2"/>
<stop offset="1" stop-color="#9F00BE"/>
</linearGradient>
<linearGradient id="paint1_linear_53_4915" x1="-0.159805" y1="-9.58535" x2="25.8478" y2="40.927" gradientUnits="userSpaceOnUse">
<stop stop-color="#00A9B7"/>
<stop offset="0.5" stop-color="#4C32F2"/>
<stop offset="1" stop-color="#9F00BE"/>
</linearGradient>
<linearGradient id="paint2_linear_53_4915" x1="-10.6251" y1="-4.19701" x2="15.3825" y2="46.3154" gradientUnits="userSpaceOnUse">
<stop stop-color="#00A9B7"/>
<stop offset="0.5" stop-color="#4C32F2"/>
<stop offset="1" stop-color="#9F00BE"/>
</linearGradient>
</defs>
</svg>
