<svg width="28" height="28" viewBox="0 0 28 28" fill="none" xmlns="http://www.w3.org/2000/svg">
<g id="Group">
<path id="Vector" d="M4.66667 3.5H23.3333C23.6428 3.5 23.9395 3.62292 24.1583 3.84171C24.3771 4.0605 24.5 4.35725 24.5 4.66667V23.3333C24.5 23.6428 24.3771 23.9395 24.1583 24.1583C23.9395 24.3771 23.6428 24.5 23.3333 24.5H4.66667C4.35725 24.5 4.0605 24.3771 3.84171 24.1583C3.62292 23.9395 3.5 23.6428 3.5 23.3333V4.66667C3.5 4.35725 3.62292 4.0605 3.84171 3.84171C4.0605 3.62292 4.35725 3.5 4.66667 3.5ZM20.1833 18.5967C20.0667 18.5383 20.0083 18.3633 20.0083 18.2455V9.34033C20.0083 9.22367 20.0667 9.04867 20.1833 8.93083L21.2975 7.64167V7.58333H17.3133L14.3267 15.141L10.927 7.58333H6.82733V7.64167L7.88083 9.107C8.11533 9.34033 8.17367 9.69267 8.17367 9.9855V16.429C8.232 16.7813 8.17367 17.1908 7.99867 17.542L6.41667 19.7097V19.768H10.6353V19.7097L9.05333 17.6015C8.87833 17.2492 8.81883 16.898 8.87833 16.4885V10.6283C8.93667 10.745 8.995 10.745 9.05333 10.9795L13.0363 19.8847H13.0947L16.9633 10.22C16.905 10.57 16.905 10.9807 16.905 11.2747V18.1872C16.905 18.3622 16.8467 18.4788 16.73 18.5967L15.5575 19.7097V19.768H21.2987V19.7097L20.1857 18.5967H20.1833Z" fill="white"/>
</g>
</svg>
