<svg width="294" height="304" viewBox="0 0 294 304" fill="none" xmlns="http://www.w3.org/2000/svg">
<path d="M197.393 81.4969C197.393 95.0797 174.813 106.134 147.001 106.134C119.189 106.134 96.6094 95.0797 96.6094 81.4969C96.6094 67.9141 119.189 51.7441 147.001 51.7441C174.813 51.7441 197.393 67.9141 197.393 81.4969Z" fill="#CFBCFF"/>
<path d="M146.999 106.545C119.01 106.545 96.1953 95.3146 96.1953 81.4966C96.1953 74.6758 101.781 67.0318 111.131 61.1518C121.185 54.8014 133.945 51.2734 146.999 51.2734C160.052 51.2734 172.753 54.8014 182.867 61.1518C192.216 67.0318 197.802 74.6758 197.802 81.4966C197.802 95.3146 174.987 106.545 146.999 106.545ZM146.999 52.1554C119.304 52.1554 97.0185 68.2078 97.0185 81.5554C97.0185 94.903 119.421 105.781 146.999 105.781C174.576 105.781 196.979 94.903 196.979 81.5554C196.979 68.2078 174.693 52.1554 146.999 52.1554Z" fill="#231F20"/>
<path d="M146.998 114.601C207.595 114.601 256.719 103.807 256.719 90.4928C256.719 77.1783 207.595 66.3848 146.998 66.3848C86.401 66.3848 37.2773 77.1783 37.2773 90.4928C37.2773 103.807 86.401 114.601 146.998 114.601Z" fill="white"/>
<path d="M147 115.013C117.658 115.013 90.0812 112.484 69.3248 107.957C48.392 103.37 36.8672 97.1376 36.8672 90.4932C36.8672 83.8488 48.392 77.616 69.3248 73.0296C90.0812 68.4432 117.658 65.9736 147 65.9736C176.341 65.9736 203.918 68.502 224.674 73.0296C245.607 77.616 257.132 83.8488 257.132 90.4932C257.132 97.1376 245.607 103.37 224.674 107.957C203.918 112.484 176.341 115.013 147 115.013ZM147 66.738C86.7296 66.738 37.6316 77.3808 37.6316 90.4344C37.6316 103.488 86.6708 114.131 147 114.131C207.328 114.131 256.368 103.488 256.368 90.4344C256.368 77.3808 207.27 66.738 147 66.738Z" fill="#231F20"/>
<path d="M146.998 114.66C207.595 114.66 256.719 104.814 256.719 92.6689C256.719 80.5235 207.595 70.6777 146.998 70.6777C86.401 70.6777 37.2773 80.5235 37.2773 92.6689C37.2773 104.814 86.401 114.66 146.998 114.66Z" fill="white"/>
<path d="M147 115.012C85.201 115.012 36.8086 105.193 36.8086 92.6682C36.8086 80.1438 85.201 70.3242 147 70.3242C208.799 70.3242 257.191 80.1438 257.191 92.727C257.191 105.31 208.799 115.012 147 115.012ZM147 71.0886C117.717 71.0886 90.199 73.3818 69.4426 77.4978C49.2742 81.555 37.6318 87.0822 37.6318 92.6682C37.6318 98.2542 49.2154 103.723 69.4426 107.78C90.1402 111.896 117.659 114.189 147 114.189C176.341 114.189 203.801 111.896 224.498 107.78C244.725 103.723 256.368 98.1954 256.368 92.6682C256.368 87.141 244.784 81.6138 224.557 77.5566C203.801 73.3818 176.282 71.0886 147 71.0886Z" fill="#231F20"/>
<path d="M122.834 111.015L75.5 242.727H218.443L171.168 111.015H122.834Z" fill="#CFBCFF"/>
<path d="M146.999 114.601C160.346 114.601 171.166 112.995 171.166 111.015C171.166 109.034 160.346 107.428 146.999 107.428C133.652 107.428 122.832 109.034 122.832 111.015C122.832 112.995 133.652 114.601 146.999 114.601Z" fill="#231F20"/>
<path d="M147 115.012C137.122 115.012 122.422 113.954 122.422 111.014C122.422 108.074 137.122 107.016 147 107.016C156.879 107.016 171.579 108.074 171.579 111.014C171.579 113.954 156.879 115.012 147 115.012ZM147 107.898C132.535 107.898 123.304 109.779 123.304 111.073C123.304 112.366 132.535 114.248 147 114.248C161.465 114.248 170.697 112.366 170.697 111.073C170.697 109.779 161.465 107.898 147 107.898Z" fill="#231F20"/>
<path d="M147.002 92.6095C148.495 92.6095 149.706 91.9777 149.706 91.1983C149.706 90.4189 148.495 89.7871 147.002 89.7871C145.508 89.7871 144.297 90.4189 144.297 91.1983C144.297 91.9777 145.508 92.6095 147.002 92.6095Z" fill="#D1D3D4"/>
<path d="M110.896 94.0802C112.39 94.0802 113.601 93.4484 113.601 92.669C113.601 91.8896 112.39 91.2578 110.896 91.2578C109.402 91.2578 108.191 91.8896 108.191 92.669C108.191 93.4484 109.402 94.0802 110.896 94.0802Z" fill="#D1D3D4"/>
<path d="M183.103 94.0802C184.597 94.0802 185.808 93.4484 185.808 92.669C185.808 91.8896 184.597 91.2578 183.103 91.2578C181.609 91.2578 180.398 91.8896 180.398 92.669C180.398 93.4484 181.609 94.0802 183.103 94.0802Z" fill="#D1D3D4"/>
<path d="M69.6189 99.0783C71.1127 99.0783 72.3237 98.4464 72.3237 97.6671C72.3237 96.8877 71.1127 96.2559 69.6189 96.2559C68.125 96.2559 66.9141 96.8877 66.9141 97.6671C66.9141 98.4464 68.125 99.0783 69.6189 99.0783Z" fill="#D1D3D4"/>
<path d="M224.381 98.1368C225.874 98.1368 227.085 97.505 227.085 96.7256C227.085 95.9463 225.874 95.3145 224.381 95.3145C222.887 95.3145 221.676 95.9463 221.676 96.7256C221.676 97.505 222.887 98.1368 224.381 98.1368Z" fill="#D1D3D4"/>
<path d="M210.502 109.427C211.995 109.427 213.206 108.795 213.206 108.016C213.206 107.236 211.995 106.604 210.502 106.604C209.008 106.604 207.797 107.236 207.797 108.016C207.797 108.795 209.008 109.427 210.502 109.427Z" fill="#D1D3D4"/>
<path d="M86.2009 109.427C87.6947 109.427 88.9057 108.795 88.9057 108.016C88.9057 107.236 87.6947 106.604 86.2009 106.604C84.7071 106.604 83.4961 107.236 83.4961 108.016C83.4961 108.795 84.7071 109.427 86.2009 109.427Z" fill="#D1D3D4"/>
<path d="M100.43 194.452C100.371 194.452 100.313 194.452 100.313 194.452C100.077 194.393 99.9598 194.158 100.077 193.922L126.302 121.246C126.361 121.01 126.596 120.893 126.773 120.952C127.008 121.01 127.125 121.246 127.067 121.422C127.067 121.422 127.067 121.481 127.008 121.481L100.783 194.099C100.783 194.334 100.607 194.452 100.43 194.452Z" fill="white"/>
<path d="M178.636 169.05C178.459 169.05 178.283 168.932 178.224 168.756L168.757 135.122C168.698 134.887 168.816 134.711 169.051 134.593C169.286 134.534 169.522 134.652 169.58 134.887L179.047 168.521C179.106 168.756 178.988 168.932 178.753 169.05H178.636Z" fill="white"/>
<path d="M199.977 227.615C199.801 227.615 199.624 227.497 199.565 227.321L196.331 216.972C196.273 216.737 196.39 216.502 196.625 216.443C196.861 216.384 197.096 216.502 197.155 216.737L200.389 227.086C200.447 227.321 200.33 227.556 200.153 227.615C200.036 227.615 199.977 227.615 199.977 227.615Z" fill="white"/>
<path d="M101.899 226.674C101.84 226.674 101.781 226.674 101.781 226.674C101.546 226.615 101.429 226.38 101.546 226.145L107.367 209.563C107.426 209.328 107.661 209.269 107.897 209.328C108.132 209.387 108.249 209.622 108.132 209.857L102.311 226.38C102.252 226.556 102.075 226.674 101.899 226.674Z" fill="white"/>
<path d="M151.527 139.297C151.292 139.297 151.116 139.121 151.116 138.944L149.293 124.127C149.293 123.891 149.411 123.715 149.646 123.656C149.881 123.656 150.057 123.774 150.116 124.009L151.939 138.827C151.998 139.062 151.821 139.238 151.586 139.297C151.586 139.297 151.586 139.297 151.527 139.297Z" fill="white"/>
<path d="M127.126 230.849H127.008C126.773 230.79 126.655 230.555 126.714 230.379L128.713 221.088C128.772 220.853 129.007 220.735 129.184 220.794C129.419 220.853 129.537 221.088 129.478 221.265L127.479 230.555C127.479 230.673 127.302 230.849 127.126 230.849Z" fill="white"/>
<path d="M163.465 124.48C163.288 124.48 163.112 124.362 163.053 124.186L159.937 111.132C159.878 110.897 159.996 110.662 160.231 110.603C160.466 110.544 160.701 110.662 160.76 110.897L163.935 123.892C163.994 124.127 163.876 124.362 163.641 124.362L163.465 124.48Z" fill="white"/>
<path d="M136.887 123.303H136.829C136.593 123.244 136.476 123.009 136.535 122.833L138.828 112.19C138.887 111.955 139.122 111.837 139.298 111.896C139.533 111.955 139.651 112.19 139.592 112.366L137.299 123.009C137.299 123.185 137.123 123.303 136.887 123.303Z" fill="white"/>
<path d="M171.166 61.3282C171.107 61.3282 171.048 61.3282 170.989 61.2694C158.935 54.625 144.471 55.1542 144.353 55.1542C144.118 55.1542 143.941 54.9778 143.941 54.7426C143.941 54.5074 144.118 54.331 144.353 54.331C144.471 54.331 159.171 53.8018 171.401 60.5638C171.577 60.6814 171.695 60.9166 171.577 61.093C171.577 61.093 171.577 61.093 171.577 61.1518C171.401 61.2694 171.283 61.3282 171.166 61.3282Z" fill="white"/>
<path d="M135.18 163.17C135.063 163.17 134.886 163.111 134.828 162.994C130.947 156.761 129.536 149.293 130.77 142.061C130.829 141.826 131.006 141.708 131.241 141.708C131.476 141.767 131.594 141.943 131.594 142.178C130.359 149.234 131.77 156.467 135.533 162.582C135.651 162.758 135.592 162.994 135.416 163.17C135.416 163.17 135.416 163.17 135.357 163.17C135.298 163.17 135.239 163.17 135.18 163.17Z" fill="#231F20"/>
<path d="M131.007 142.707C132.078 142.707 132.947 141.838 132.947 140.767C132.947 139.695 132.078 138.826 131.007 138.826C129.935 138.826 129.066 139.695 129.066 140.767C129.066 141.838 129.935 142.707 131.007 142.707Z" fill="#231F20"/>
<path d="M131.004 143.119C129.711 143.119 128.652 142.061 128.652 140.767C128.652 139.473 129.711 138.415 131.004 138.415C132.298 138.415 133.356 139.473 133.356 140.767C133.356 142.061 132.298 143.119 131.004 143.119ZM131.004 139.297C130.181 139.297 129.476 139.944 129.476 140.826C129.476 141.649 130.122 142.355 131.004 142.355C131.828 142.355 132.533 141.708 132.533 140.826C132.533 139.944 131.828 139.297 131.004 139.297Z" fill="#231F20"/>
<path d="M182.63 204.683C182.865 204.742 191.509 199.803 190.039 196.569C188.569 193.335 183.101 200.508 182.277 201.684" fill="white"/>
<path d="M182.571 205.095H182.512C182.277 205.036 182.159 204.801 182.277 204.565C182.336 204.448 182.453 204.33 182.63 204.271C183.218 204.036 188.392 201.037 189.627 198.333C189.921 197.862 189.921 197.274 189.745 196.745C189.509 196.275 189.274 196.157 189.098 196.157C187.569 196.039 184.453 199.509 182.689 201.919C182.571 202.096 182.336 202.155 182.101 202.037C181.924 201.919 181.865 201.625 181.983 201.449C182.747 200.391 186.746 195.099 189.157 195.334C189.745 195.393 190.274 195.804 190.509 196.392C191.038 197.509 190.568 198.921 189.157 200.449C187.216 202.566 183.335 205.095 182.571 205.095Z" fill="#231F20"/>
<path d="M130.006 196.216C129.888 196.686 124.185 208.975 129.065 206.564C133.945 204.154 133.651 192.923 133.651 192.923" fill="#231F20"/>
<path d="M128.004 207.27C127.71 207.27 127.416 207.153 127.181 206.976C126.123 205.977 126.77 202.919 129.357 196.745C129.474 196.392 129.592 196.157 129.651 196.098C129.71 195.863 129.945 195.746 130.18 195.804C130.415 195.863 130.533 196.098 130.474 196.334C130.474 196.451 130.415 196.569 130.18 197.157C127.181 204.33 127.416 206.036 127.828 206.447C128.004 206.624 128.416 206.565 129.004 206.271C133.59 203.978 133.355 193.1 133.355 192.982C133.355 192.747 133.532 192.57 133.767 192.57C134.002 192.57 134.178 192.747 134.178 192.982C134.178 193.452 134.472 204.507 129.357 207.035C128.945 207.153 128.475 207.27 128.004 207.27Z" fill="#231F20"/>
<path d="M151.879 208.093C151.644 208.328 150.468 224.792 154.113 220.382C157.759 215.972 158.288 207.563 158.288 207.563" fill="#231F20"/>
<path d="M153.057 221.558C152.998 221.558 152.88 221.558 152.821 221.558C152.233 221.441 151.763 220.735 151.528 219.441C150.999 217.031 150.999 208.328 151.645 207.799C151.822 207.681 152.116 207.681 152.233 207.858C152.351 207.975 152.351 208.152 152.292 208.328C151.998 209.445 151.528 219.912 152.998 220.735C153.174 220.794 153.468 220.617 153.88 220.147C157.408 215.913 157.937 207.681 157.937 207.623C157.937 207.387 158.172 207.211 158.407 207.211C158.643 207.211 158.819 207.446 158.819 207.623C158.819 207.975 158.231 216.207 154.585 220.676C154.115 221.147 153.645 221.499 153.057 221.558Z" fill="#231F20"/>
<path d="M170.93 210.857C169.754 212.386 168.048 213.386 166.167 213.562C162.815 214.032 142.353 208.094 133.592 202.978C125.007 197.98 118.48 190.454 120.126 183.339C120.185 183.162 120.185 182.986 120.244 182.81C121.596 178.164 127.3 170.226 132.18 165.052C135.003 162.112 137.531 160.054 138.884 159.995C139.883 159.995 142.118 160.818 144.94 162.347C148.644 164.405 152.172 166.698 155.524 169.344C156.935 170.403 158.288 171.579 159.699 172.814C161.933 174.754 163.991 176.871 165.99 179.105C167.99 181.34 169.754 183.809 171.341 186.396C180.102 201.214 170.93 210.857 170.93 210.857Z" fill="white"/>
<path d="M138.943 160.054C140.001 160.054 142.177 160.877 144.94 162.406C148.645 164.464 152.173 166.757 155.524 169.403C156.935 170.461 158.288 171.637 159.699 172.872C161.933 174.813 163.991 176.929 165.991 179.164C167.99 181.398 169.754 183.868 171.341 186.455C180.161 201.331 170.989 210.975 170.989 210.975C169.813 212.503 168.108 213.503 166.226 213.679C166.05 213.679 165.932 213.679 165.755 213.679C161.345 213.679 142.059 207.976 133.592 203.037C125.007 198.039 118.48 190.512 120.127 183.397C120.185 183.221 120.185 183.045 120.244 182.868C121.597 178.223 127.3 170.285 132.181 165.111C135.003 162.112 137.531 160.054 138.943 160.054ZM138.943 159.172H138.884C137.414 159.231 134.944 160.995 131.593 164.464C126.771 169.579 120.832 177.635 119.421 182.574C119.362 182.751 119.303 182.927 119.303 183.103C118.069 188.454 121.067 196.627 133.18 203.683C141.647 208.623 160.934 214.385 165.755 214.385C165.932 214.385 166.167 214.385 166.343 214.385C168.46 214.15 170.401 213.033 171.694 211.386C172.459 210.563 180.808 200.567 172.106 185.926C170.518 183.28 168.695 180.81 166.696 178.576C164.697 176.341 162.58 174.225 160.346 172.225C158.994 170.991 157.582 169.815 156.171 168.756C152.819 166.11 149.233 163.758 145.469 161.7C143.647 160.701 140.589 159.172 138.943 159.172Z" fill="#231F20"/>
<path d="M160.348 202.977C160.348 202.977 163.993 196.039 167.639 193.51C171.284 190.982 181.927 196.803 183.691 200.155C185.455 203.506 180.751 213.032 180.751 213.032C180.751 213.032 164.17 203.095 160.348 202.977Z" fill="white"/>
<path d="M180.75 213.444C180.691 213.444 180.574 213.444 180.515 213.385C180.338 213.268 164.051 203.507 160.288 203.389C160.17 203.389 159.994 203.331 159.935 203.154C159.876 203.037 159.876 202.86 159.935 202.743C160.111 202.449 163.698 195.687 167.344 193.099C168.461 192.335 170.166 192.217 172.4 192.747C176.869 193.805 182.632 197.333 183.984 199.92C185.866 203.389 181.279 212.797 181.044 213.209C180.985 213.327 180.926 213.385 180.809 213.444H180.75ZM160.993 202.625C165.403 203.507 178.104 210.975 180.574 212.445C181.926 209.563 184.631 202.801 183.278 200.332C182.102 198.215 176.81 194.687 172.224 193.57C170.225 193.099 168.696 193.217 167.814 193.805C164.933 195.922 161.934 200.979 160.993 202.625Z" fill="#231F20"/>
<path d="M169.167 195.216C169.167 195.216 162.934 186.984 160.994 188.042C159.053 189.101 160.994 195.333 167.05 196.098" fill="white"/>
<path d="M167.05 196.51H166.991C162.875 195.981 160.464 193.041 159.935 190.512C159.641 189.16 159.994 188.101 160.758 187.631C162.816 186.455 167.932 192.923 169.461 194.922C169.578 195.099 169.578 195.334 169.402 195.51C169.226 195.628 168.932 195.628 168.814 195.451C165.933 191.629 162.17 187.807 161.17 188.395C160.7 188.689 160.582 189.395 160.758 190.395C161.229 192.629 163.404 195.275 167.109 195.745C167.344 195.804 167.462 195.981 167.462 196.216C167.403 196.392 167.285 196.569 167.05 196.569V196.51Z" fill="#231F20"/>
<path d="M169.871 193.276C169.871 193.276 170.341 188.866 170.988 189.218C171.635 189.571 173.046 194.04 173.046 194.04" fill="white"/>
<path d="M173.047 194.452C172.871 194.452 172.695 194.334 172.636 194.158C172.165 192.629 171.636 191.159 170.931 189.748C170.578 190.924 170.401 192.1 170.284 193.276C170.225 193.511 170.049 193.687 169.813 193.629C169.578 193.629 169.402 193.393 169.461 193.158C169.755 190.512 170.166 189.042 170.637 188.748C170.813 188.689 170.989 188.689 171.166 188.748C171.813 189.042 172.753 191.688 173.459 193.864C173.518 194.099 173.4 194.334 173.165 194.393L173.047 194.452Z" fill="#231F20"/>
<path d="M179.633 198.097C179.633 198.097 182.926 195.628 183.808 196.039C184.69 196.451 181.338 200.214 181.338 200.214" fill="white"/>
<path d="M181.339 200.625C181.104 200.625 180.928 200.449 180.928 200.214C180.928 200.096 180.986 200.037 181.045 199.979C182.398 198.509 183.456 196.921 183.515 196.392C183.044 196.392 181.398 197.274 179.869 198.391C179.693 198.509 179.458 198.509 179.281 198.332C179.164 198.156 179.164 197.921 179.34 197.744C180.398 196.921 182.986 195.157 183.926 195.686C184.103 195.804 184.22 195.98 184.279 196.157C184.456 197.156 182.456 199.508 181.574 200.508C181.574 200.625 181.457 200.625 181.339 200.625Z" fill="#231F20"/>
<path d="M121.775 190.159C121.657 190.394 116.247 201.802 118.482 201.684C120.716 201.566 126.714 191.159 126.714 191.159" fill="white"/>
<path d="M118.422 202.154C118.128 202.154 117.893 202.037 117.717 201.802C117.011 200.743 118.246 196.862 121.303 190.218L121.362 190.042C121.48 189.806 121.715 189.748 121.891 189.806C122.127 189.924 122.185 190.159 122.127 190.336L122.068 190.512C118.716 197.803 118.069 200.978 118.422 201.331C119.951 201.272 124.067 194.981 126.36 190.982C126.478 190.747 126.713 190.688 126.889 190.747C127.066 190.806 127.183 191.1 127.125 191.276C127.125 191.276 127.125 191.335 127.066 191.335C126.007 193.158 120.833 202.037 118.422 202.154Z" fill="#231F20"/>
<path d="M142.53 202.507C142.353 202.683 136.885 220.558 141.354 216.207C145.823 211.856 148.704 203.036 148.704 203.036" fill="white"/>
<path d="M140.177 217.266C140.118 217.266 140.001 217.266 139.942 217.266C139.589 217.149 139.295 216.796 139.236 216.384C138.59 213.621 141.882 202.566 142.176 202.213C142.353 202.037 142.588 202.037 142.764 202.213C142.882 202.331 142.941 202.566 142.823 202.684C142.118 204.213 139.06 215.796 140.118 216.443C140.118 216.443 140.354 216.443 140.942 215.855C145.293 211.563 148.174 202.919 148.174 202.86C148.233 202.625 148.468 202.507 148.644 202.566C148.88 202.625 148.997 202.86 148.88 203.095C148.762 203.448 145.881 212.033 141.412 216.384C141.236 216.855 140.765 217.149 140.177 217.266Z" fill="#231F20"/>
<path d="M183.573 212.033C180.045 209.269 167.638 202.448 161.64 201.743C155.643 201.037 151.35 206.035 156.407 214.15C161.464 222.264 171.813 223.322 176.811 223.322C181.809 223.322 187.101 214.796 183.573 212.033Z" fill="white"/>
<path d="M176.811 223.734C172.284 223.734 161.406 222.794 156.114 214.385C152.703 208.976 153.821 205.624 154.761 204.154C156.114 202.037 158.701 200.979 161.759 201.332C167.874 202.037 180.457 208.976 183.926 211.68C185.279 212.739 185.573 214.62 184.808 216.855C183.573 220.147 180.281 223.734 176.811 223.734ZM160.524 202.096C158.289 202.096 156.408 202.978 155.408 204.566C153.997 206.859 154.467 210.21 156.761 213.915C161.817 222.029 172.401 222.911 176.811 222.911H176.87C179.81 222.911 182.927 219.677 183.985 216.62C184.632 214.738 184.397 213.15 183.397 212.386C179.987 209.74 167.639 202.919 161.641 202.214C161.229 202.096 160.877 202.096 160.524 202.096Z" fill="#231F20"/>
<path d="M178.22 218.677C178.22 218.677 174.633 205.564 160.051 207.622L178.22 218.677Z" fill="white"/>
<path d="M178.221 219.089C178.045 219.089 177.868 218.971 177.809 218.795C177.692 218.265 174.164 206.035 160.111 208.034C159.875 208.093 159.699 207.917 159.64 207.681C159.582 207.446 159.758 207.27 159.993 207.211C174.752 205.094 178.574 218.442 178.633 218.559C178.691 218.795 178.574 219.03 178.339 219.089H178.221Z" fill="#231F20"/>
<path d="M173.046 200.272H168.224C167.989 200.272 167.812 200.096 167.812 199.861C167.812 199.626 167.989 199.449 168.224 199.449H173.046C173.281 199.449 173.457 199.626 173.457 199.861C173.457 200.096 173.281 200.272 173.046 200.272Z" fill="#231F20"/>
<path d="M171.46 202.096C171.284 202.096 171.166 201.978 171.108 201.861L169.52 198.274C169.402 198.097 169.52 197.803 169.696 197.745C169.932 197.627 170.167 197.745 170.226 197.921L171.813 201.508C171.931 201.743 171.813 201.978 171.578 202.037C171.578 202.096 171.519 202.096 171.46 202.096Z" fill="#231F20"/>
<path d="M180.632 202.86H175.81C175.575 202.86 175.398 202.684 175.398 202.449C175.398 202.213 175.575 202.037 175.81 202.037H180.632C180.867 202.037 181.043 202.213 181.043 202.449C181.043 202.684 180.867 202.86 180.632 202.86Z" fill="#231F20"/>
<path d="M179.045 204.682C178.869 204.682 178.751 204.565 178.692 204.447L177.105 200.919C176.987 200.684 177.105 200.449 177.34 200.39C177.575 200.272 177.81 200.39 177.869 200.625L179.457 204.212C179.574 204.388 179.457 204.682 179.28 204.741C179.222 204.682 179.163 204.682 179.045 204.682Z" fill="#231F20"/>
<path d="M165.931 179.104C164.108 180.163 161.58 180.398 160.58 182.28C160.11 183.22 160.169 184.396 159.816 185.455C159.287 187.042 157.993 188.16 156.347 188.454C155.817 188.571 155.229 188.395 154.877 187.983C154.641 187.572 154.759 187.042 154.583 186.572C154.171 185.514 152.642 185.631 151.76 186.219C150.878 186.807 150.231 187.866 149.232 188.277C148.056 188.689 146.821 188.454 145.88 187.63C144.998 186.866 144.234 185.866 143.763 184.749C143.293 183.867 142.94 182.809 143.117 181.868C143.293 181.28 143.587 180.692 143.999 180.28C145.88 177.987 148.526 176.517 151.466 176.164C154.524 175.812 156.758 175.87 158.993 173.46C159.228 173.224 159.404 172.989 159.581 172.754C161.874 174.753 163.991 176.87 165.931 179.104Z" fill="#D1D3D4"/>
<path d="M139.118 174.342C137.413 175.048 135.413 175.459 134.414 176.988C133.414 178.517 133.649 180.457 132.709 181.927C131.65 183.515 129.533 184.044 127.652 184.103C125.065 184.221 122.536 183.985 120.008 183.339C120.067 183.162 120.067 182.986 120.125 182.809C121.478 178.164 127.181 170.226 132.062 165.052C135.237 165.228 138.236 166.345 140.647 168.403C141.293 168.874 141.823 169.579 142.058 170.403C142.587 172.167 140.823 173.695 139.118 174.342Z" fill="#D1D3D4"/>
<path d="M155.526 169.344C153.526 170.755 151.116 171.343 148.705 170.931C147.294 170.696 146 170.049 145 169.108C143.06 167.109 143.942 164.698 144.942 162.405C148.646 164.404 152.174 166.756 155.526 169.344Z" fill="#D1D3D4"/>
<path d="M80.7155 299V285H83.2755L89.8555 294.86V285H92.4155V299H89.8555L83.2755 289.16V299H80.7155ZM99.8295 299.24C98.8695 299.24 98.0029 299.02 97.2295 298.58C96.4695 298.14 95.8629 297.533 95.4095 296.76C94.9695 295.973 94.7495 295.067 94.7495 294.04C94.7495 293.013 94.9762 292.113 95.4295 291.34C95.8829 290.553 96.4895 289.94 97.2495 289.5C98.0229 289.06 98.8895 288.84 99.8495 288.84C100.796 288.84 101.65 289.06 102.41 289.5C103.183 289.94 103.79 290.553 104.23 291.34C104.683 292.113 104.91 293.013 104.91 294.04C104.91 295.067 104.683 295.973 104.23 296.76C103.79 297.533 103.183 298.14 102.41 298.58C101.636 299.02 100.776 299.24 99.8295 299.24ZM99.8295 297.02C100.496 297.02 101.076 296.773 101.57 296.28C102.063 295.773 102.31 295.027 102.31 294.04C102.31 293.053 102.063 292.313 101.57 291.82C101.076 291.313 100.503 291.06 99.8495 291.06C99.1695 291.06 98.5829 291.313 98.0895 291.82C97.6095 292.313 97.3695 293.053 97.3695 294.04C97.3695 295.027 97.6095 295.773 98.0895 296.28C98.5829 296.773 99.1629 297.02 99.8295 297.02ZM111.964 299V289.08H114.224L114.444 290.42C114.764 289.94 115.184 289.56 115.704 289.28C116.237 288.987 116.851 288.84 117.544 288.84C119.077 288.84 120.164 289.433 120.804 290.62C121.164 290.073 121.644 289.64 122.244 289.32C122.857 289 123.524 288.84 124.244 288.84C125.537 288.84 126.531 289.227 127.224 290C127.917 290.773 128.264 291.907 128.264 293.4V299H125.704V293.64C125.704 292.787 125.537 292.133 125.204 291.68C124.884 291.227 124.384 291 123.704 291C123.011 291 122.451 291.253 122.024 291.76C121.611 292.267 121.404 292.973 121.404 293.88V299H118.844V293.64C118.844 292.787 118.677 292.133 118.344 291.68C118.011 291.227 117.497 291 116.804 291C116.124 291 115.571 291.253 115.144 291.76C114.731 292.267 114.524 292.973 114.524 293.88V299H111.964ZM134.115 299.24C133.261 299.24 132.561 299.107 132.015 298.84C131.468 298.56 131.061 298.193 130.795 297.74C130.528 297.287 130.395 296.787 130.395 296.24C130.395 295.32 130.755 294.573 131.475 294C132.195 293.427 133.275 293.14 134.715 293.14H137.235V292.9C137.235 292.22 137.041 291.72 136.655 291.4C136.268 291.08 135.788 290.92 135.215 290.92C134.695 290.92 134.241 291.047 133.855 291.3C133.468 291.54 133.228 291.9 133.135 292.38H130.635C130.701 291.66 130.941 291.033 131.355 290.5C131.781 289.967 132.328 289.56 132.995 289.28C133.661 288.987 134.408 288.84 135.235 288.84C136.648 288.84 137.761 289.193 138.575 289.9C139.388 290.607 139.795 291.607 139.795 292.9V299H137.615L137.375 297.4C137.081 297.933 136.668 298.373 136.135 298.72C135.615 299.067 134.941 299.24 134.115 299.24ZM134.695 297.24C135.428 297.24 135.995 297 136.395 296.52C136.808 296.04 137.068 295.447 137.175 294.74H134.995C134.315 294.74 133.828 294.867 133.535 295.12C133.241 295.36 133.095 295.66 133.095 296.02C133.095 296.407 133.241 296.707 133.535 296.92C133.828 297.133 134.215 297.24 134.695 297.24ZM142.238 299V289.08H144.518L144.758 290.94C145.118 290.3 145.604 289.793 146.217 289.42C146.844 289.033 147.578 288.84 148.418 288.84V291.54H147.698C147.138 291.54 146.638 291.627 146.198 291.8C145.758 291.973 145.411 292.273 145.158 292.7C144.918 293.127 144.798 293.72 144.798 294.48V299H142.238ZM150.167 299V284.6H152.727V293.1L156.247 289.08H159.287L155.227 293.6L159.947 299H156.747L152.727 294.02V299H150.167ZM165.534 299.24C164.534 299.24 163.647 299.027 162.874 298.6C162.101 298.173 161.494 297.573 161.054 296.8C160.614 296.027 160.394 295.133 160.394 294.12C160.394 293.093 160.607 292.18 161.034 291.38C161.474 290.58 162.074 289.96 162.834 289.52C163.607 289.067 164.514 288.84 165.554 288.84C166.527 288.84 167.387 289.053 168.134 289.48C168.881 289.907 169.461 290.493 169.874 291.24C170.301 291.973 170.514 292.793 170.514 293.7C170.514 293.847 170.507 294 170.494 294.16C170.494 294.32 170.487 294.487 170.474 294.66H162.934C162.987 295.433 163.254 296.04 163.734 296.48C164.227 296.92 164.821 297.14 165.514 297.14C166.034 297.14 166.467 297.027 166.814 296.8C167.174 296.56 167.441 296.253 167.614 295.88H170.214C170.027 296.507 169.714 297.08 169.274 297.6C168.847 298.107 168.314 298.507 167.674 298.8C167.047 299.093 166.334 299.24 165.534 299.24ZM165.554 290.92C164.927 290.92 164.374 291.1 163.894 291.46C163.414 291.807 163.107 292.34 162.974 293.06H167.914C167.874 292.407 167.634 291.887 167.194 291.5C166.754 291.113 166.207 290.92 165.554 290.92ZM176.911 299C175.871 299 175.038 298.747 174.411 298.24C173.785 297.733 173.471 296.833 173.471 295.54V291.22H171.771V289.08H173.471L173.771 286.42H176.031V289.08H178.711V291.22H176.031V295.56C176.031 296.04 176.131 296.373 176.331 296.56C176.545 296.733 176.905 296.82 177.411 296.82H178.651V299H176.911ZM186.915 303.4L189.215 298.34H188.615L184.755 289.08H187.535L190.315 296.06L193.215 289.08H195.935L189.635 303.4H186.915ZM201.569 299.24C200.569 299.24 199.683 299.027 198.909 298.6C198.136 298.173 197.529 297.573 197.089 296.8C196.649 296.027 196.429 295.133 196.429 294.12C196.429 293.093 196.643 292.18 197.069 291.38C197.509 290.58 198.109 289.96 198.869 289.52C199.643 289.067 200.549 288.84 201.589 288.84C202.563 288.84 203.423 289.053 204.169 289.48C204.916 289.907 205.496 290.493 205.909 291.24C206.336 291.973 206.549 292.793 206.549 293.7C206.549 293.847 206.543 294 206.529 294.16C206.529 294.32 206.523 294.487 206.509 294.66H198.969C199.023 295.433 199.289 296.04 199.769 296.48C200.263 296.92 200.856 297.14 201.549 297.14C202.069 297.14 202.503 297.027 202.849 296.8C203.209 296.56 203.476 296.253 203.649 295.88H206.249C206.063 296.507 205.749 297.08 205.309 297.6C204.883 298.107 204.349 298.507 203.709 298.8C203.083 299.093 202.369 299.24 201.569 299.24ZM201.589 290.92C200.963 290.92 200.409 291.1 199.929 291.46C199.449 291.807 199.143 292.34 199.009 293.06H203.949C203.909 292.407 203.669 291.887 203.229 291.5C202.789 291.113 202.243 290.92 201.589 290.92ZM212.947 299C211.907 299 211.073 298.747 210.447 298.24C209.82 297.733 209.507 296.833 209.507 295.54V291.22H207.807V289.08H209.507L209.807 286.42H212.067V289.08H214.747V291.22H212.067V295.56C212.067 296.04 212.167 296.373 212.367 296.56C212.58 296.733 212.94 296.82 213.447 296.82H214.687V299H212.947Z" fill="#55617E"/>
</svg>
