<svg width="19" height="19" viewBox="0 0 19 19" fill="none" xmlns="http://www.w3.org/2000/svg">
<g id="Group">
<path id="Vector" d="M11.4236 2C12.796 1.99935 14.1273 2.46925 15.1952 3.33134C16.2631 4.19344 17.0032 5.39561 17.2921 6.73735C17.5809 8.0791 17.401 9.47931 16.7823 10.7045C16.1637 11.9296 15.1437 12.9056 13.8926 13.4698C13.4926 14.3539 12.8842 15.1279 12.1195 15.7253C11.3547 16.3227 10.4565 16.7257 9.50178 16.8998C8.54709 17.0738 7.56443 17.0137 6.63808 16.7245C5.71173 16.4354 4.86934 15.9259 4.18314 15.2397C3.49695 14.5535 2.98743 13.7111 2.69829 12.7847C2.40915 11.8584 2.34902 10.8757 2.52305 9.92103C2.69708 8.96633 3.10008 8.0681 3.69749 7.30335C4.29489 6.53861 5.06887 5.93018 5.95306 5.53025C6.42866 4.47792 7.19775 3.58513 8.16807 2.95896C9.13838 2.33279 10.2687 1.99982 11.4236 2ZM8.42356 6.5C7.83261 6.5 7.24745 6.6164 6.70148 6.84254C6.15552 7.06869 5.65944 7.40016 5.24158 7.81802C4.82371 8.23588 4.49225 8.73196 4.2661 9.27793C4.03995 9.82389 3.92356 10.4091 3.92356 11C3.92356 11.5909 4.03995 12.1761 4.2661 12.7221C4.49225 13.268 4.82371 13.7641 5.24158 14.182C5.65944 14.5998 6.15552 14.9313 6.70148 15.1575C7.24745 15.3836 7.83261 15.5 8.42356 15.5C9.61703 15.5 10.7616 15.0259 11.6055 14.182C12.4495 13.3381 12.9236 12.1935 12.9236 11C12.9236 9.80653 12.4495 8.66193 11.6055 7.81802C10.7616 6.97411 9.61703 6.5 8.42356 6.5ZM9.17356 7.25V8H10.6736V9.5H7.67356C7.57985 9.49983 7.48947 9.53475 7.42022 9.59788C7.35097 9.66102 7.30787 9.74779 7.2994 9.84112C7.29093 9.93444 7.31772 10.0276 7.37447 10.1021C7.43123 10.1767 7.51385 10.2273 7.60606 10.244L7.67356 10.25H9.17356C9.67084 10.25 10.1478 10.4475 10.4994 10.7992C10.851 11.1508 11.0486 11.6277 11.0486 12.125C11.0486 12.6223 10.851 13.0992 10.4994 13.4508C10.1478 13.8025 9.67084 14 9.17356 14V14.75H7.67356V14H6.17356V12.5H9.17356C9.26727 12.5002 9.35764 12.4653 9.42689 12.4021C9.49614 12.339 9.53925 12.2522 9.54771 12.1589C9.55618 12.0656 9.5294 11.9724 9.47264 11.8979C9.41588 11.8233 9.33327 11.7727 9.24106 11.756L9.17356 11.75H7.67356C7.17628 11.75 6.69936 11.5525 6.34773 11.2008C5.9961 10.8492 5.79856 10.3723 5.79856 9.875C5.79856 9.37772 5.9961 8.90081 6.34773 8.54918C6.69936 8.19754 7.17628 8 7.67356 8V7.25H9.17356ZM11.4236 3.5C10.7881 3.49926 10.1597 3.63346 9.57992 3.89372C9.00018 4.15399 8.4823 4.53438 8.06056 5.00975C8.90825 4.95829 9.75722 5.08737 10.5513 5.38846C11.3454 5.68955 12.0665 6.15578 12.667 6.75634C13.2675 7.35689 13.7336 8.07807 14.0346 8.8722C14.3356 9.66633 14.4646 10.5153 14.4131 11.363C15.095 10.7567 15.5765 9.95746 15.7937 9.07123C16.0109 8.18501 15.9536 7.25369 15.6293 6.40079C15.305 5.5479 14.7291 4.81373 13.978 4.29566C13.2269 3.77759 12.336 3.50011 11.4236 3.5Z" fill="#5138F6"/>
</g>
</svg>
