<svg width="19" height="18" viewBox="0 0 19 18" fill="none" xmlns="http://www.w3.org/2000/svg">
<g id="Editor / link-m" clip-path="url(#clip0_67_3927)">
<g id="Group">
<path id="Vector" d="M13.3192 11.121L12.2587 10.0605L13.3192 9C13.5978 8.72142 13.8188 8.39069 13.9696 8.02671C14.1203 7.66272 14.1979 7.2726 14.1979 6.87863C14.1979 6.48465 14.1203 6.09453 13.9696 5.73055C13.8188 5.36656 13.5978 5.03584 13.3192 4.75725C13.0407 4.47867 12.7099 4.25769 12.3459 4.10692C11.982 3.95615 11.5918 3.87855 11.1979 3.87855C10.8039 3.87855 10.4138 3.95615 10.0498 4.10692C9.6858 4.25769 9.35507 4.47867 9.07649 4.75725L8.01599 5.81775L6.95549 4.75725L8.01599 3.69675C8.86222 2.86419 10.0032 2.39974 11.1903 2.40458C12.3774 2.40941 13.5145 2.88314 14.3539 3.72256C15.1934 4.56199 15.6671 5.6991 15.6719 6.88622C15.6767 8.07333 15.2123 9.21427 14.3797 10.0605L13.3192 11.121ZM11.1975 13.2428L10.137 14.3033C9.72038 14.7267 9.22405 15.0635 8.67664 15.2942C8.12922 15.5248 7.54155 15.6448 6.94752 15.6473C6.3535 15.6497 5.76487 15.5345 5.21559 15.3082C4.66632 15.082 4.16726 14.7493 3.74722 14.3293C3.32717 13.9092 2.99445 13.4102 2.76824 12.8609C2.54204 12.3116 2.42682 11.723 2.42924 11.129C2.43166 10.5349 2.55166 9.94727 2.78234 9.39985C3.01301 8.85244 3.34979 8.35611 3.77324 7.9395L4.83374 6.879L5.89424 7.9395L4.83374 9C4.55515 9.27859 4.33417 9.60931 4.1834 9.9733C4.03263 10.3373 3.95503 10.7274 3.95503 11.1214C3.95503 11.5154 4.03263 11.9055 4.1834 12.2695C4.33417 12.6334 4.55515 12.9642 4.83374 13.2428C5.11232 13.5213 5.44305 13.7423 5.80703 13.8931C6.17102 14.0439 6.56114 14.1215 6.95511 14.1215C7.34909 14.1215 7.73921 14.0439 8.10319 13.8931C8.46718 13.7423 8.7979 13.5213 9.07649 13.2428L10.137 12.1823L11.1975 13.2428ZM11.1975 5.81775L12.2587 6.879L6.95549 12.1815L5.89424 11.121L11.1975 5.8185V5.81775Z" fill="#5138F6"/>
</g>
</g>
<defs>
<clipPath id="clip0_67_3927">
<rect width="18" height="18" fill="white" transform="translate(0.0766602)"/>
</clipPath>
</defs>
</svg>
