<svg width="207" height="207" viewBox="0 0 207 207" fill="none" xmlns="http://www.w3.org/2000/svg">
<path d="M168.623 103.499C168.623 139.476 139.478 168.622 103.501 168.622C67.5245 168.622 38.3789 139.476 38.3789 103.499C38.3789 67.5227 67.5245 38.3771 103.501 38.3771C139.354 38.2943 168.499 67.2743 168.623 103.127C168.623 103.251 168.623 103.375 168.623 103.499Z" fill="white"/>
<path d="M103.502 168.912C67.3596 168.912 38.0898 139.642 38.0898 103.5C38.0898 67.4405 67.4424 38.0879 103.502 38.0879C139.561 38.0879 168.914 67.4405 168.914 103.5C168.914 139.642 139.644 168.912 103.502 168.912ZM103.502 38.6675C67.7736 38.6675 38.6694 67.7303 38.6694 103.5C38.6694 139.311 67.6908 168.332 103.502 168.332C139.313 168.332 168.334 139.311 168.334 103.5C168.334 67.7717 139.23 38.6675 103.502 38.6675Z" fill="#022602"/>
<path d="M74.1882 84.4133C74.0226 84.4133 73.8984 84.2891 73.8984 84.1235V82.2605C73.8984 82.0949 74.0226 81.9707 74.1882 81.9707C74.3538 81.9707 74.478 82.0949 74.478 82.2605V84.1235C74.478 84.2891 74.3538 84.4133 74.1882 84.4133Z" fill="#D1D3D4"/>
<path d="M74.1882 88.2649C74.0226 88.2649 73.8984 88.1407 73.8984 87.9751V86.1121C73.8984 85.9465 74.0226 85.8223 74.1882 85.8223C74.3538 85.8223 74.478 85.9465 74.478 86.1121V87.9751C74.478 88.1407 74.3538 88.2649 74.1882 88.2649Z" fill="#D1D3D4"/>
<path d="M77.0434 85.4077H75.1804C75.0148 85.4077 74.8906 85.2835 74.8906 85.1179C74.8906 84.9523 75.0148 84.8281 75.1804 84.8281H77.0434C77.209 84.8281 77.3332 84.9523 77.3332 85.1179C77.3332 85.2835 77.209 85.4077 77.0434 85.4077Z" fill="#D1D3D4"/>
<path d="M73.1958 85.4077H71.3328C71.1672 85.4077 71.043 85.2835 71.043 85.1179C71.043 84.9523 71.1672 84.8281 71.3328 84.8281H73.1958C73.3614 84.8281 73.4856 84.9523 73.4856 85.1179C73.4856 85.2835 73.3614 85.4077 73.1958 85.4077Z" fill="#D1D3D4"/>
<path d="M56.3445 92.0324C56.1789 92.0324 56.0547 91.9082 56.0547 91.7426V89.8796C56.0547 89.714 56.1789 89.5898 56.3445 89.5898C56.5101 89.5898 56.6343 89.714 56.6343 89.8796V91.7426C56.6343 91.9082 56.5101 92.0324 56.3445 92.0324Z" fill="#D1D3D4"/>
<path d="M56.3445 95.9231C56.1789 95.9231 56.0547 95.7989 56.0547 95.6333V93.7703C56.0547 93.6047 56.1789 93.4805 56.3445 93.4805C56.5101 93.4805 56.6343 93.6047 56.6343 93.7703V95.6333C56.6343 95.7989 56.4687 95.9231 56.3445 95.9231Z" fill="#D1D3D4"/>
<path d="M59.1997 93.0659H57.3367C57.1711 93.0659 57.0469 92.9417 57.0469 92.7761C57.0469 92.6105 57.1711 92.4863 57.3367 92.4863H59.1997C59.3653 92.4863 59.4895 92.6105 59.4895 92.7761C59.4895 92.9417 59.3653 93.0659 59.1997 93.0659Z" fill="#D1D3D4"/>
<path d="M55.3091 93.0659H53.4461C53.2805 93.0659 53.1562 92.9417 53.1562 92.7761C53.1562 92.6105 53.2805 92.4863 53.4461 92.4863H55.3091C55.4747 92.4863 55.5989 92.6105 55.5989 92.7761C55.5989 92.9417 55.4747 93.0659 55.3091 93.0659Z" fill="#D1D3D4"/>
<path d="M131.403 79.3215C131.237 79.3215 131.113 79.1973 131.113 79.0317V77.1687C131.113 77.0031 131.237 76.8789 131.403 76.8789C131.569 76.8789 131.693 77.0031 131.693 77.1687V79.0317C131.693 79.1559 131.569 79.2801 131.403 79.3215Z" fill="#D1D3D4"/>
<path d="M131.403 83.1731C131.237 83.1731 131.113 83.0489 131.113 82.8833V81.0203C131.113 80.8547 131.237 80.7305 131.403 80.7305C131.569 80.7305 131.693 80.8547 131.693 81.0203V82.8833C131.693 83.0489 131.569 83.1731 131.403 83.1731Z" fill="#D1D3D4"/>
<path d="M134.258 80.3159H132.395C132.23 80.3159 132.105 80.1917 132.105 80.0261C132.105 79.8605 132.23 79.7363 132.395 79.7363H134.258C134.424 79.7363 134.548 79.8605 134.548 80.0261C134.548 80.1917 134.424 80.3159 134.258 80.3159Z" fill="#D1D3D4"/>
<path d="M130.407 80.3159H128.544C128.378 80.3159 128.254 80.1917 128.254 80.0261C128.254 79.8605 128.378 79.7363 128.544 79.7363H130.407C130.572 79.7363 130.697 79.8605 130.697 80.0261C130.697 80.1917 130.572 80.3159 130.407 80.3159Z" fill="#D1D3D4"/>
<path d="M152.309 90.1281C152.144 90.1281 152.02 90.0039 152.02 89.8383V87.9753C152.02 87.8097 152.144 87.6855 152.309 87.6855C152.475 87.6855 152.599 87.8097 152.599 87.9753V89.8383C152.599 90.0039 152.434 90.1281 152.309 90.1281Z" fill="#D1D3D4"/>
<path d="M152.309 93.9778C152.144 93.9778 152.02 93.8536 152.02 93.688V91.825C152.02 91.6594 152.144 91.5352 152.309 91.5352C152.475 91.5352 152.599 91.6594 152.599 91.825V93.688C152.599 93.8536 152.475 93.9778 152.309 93.9778Z" fill="#D1D3D4"/>
<path d="M155.165 91.1206H153.302C153.136 91.1206 153.012 90.9964 153.012 90.8308C153.012 90.6652 153.136 90.541 153.302 90.541H155.165C155.33 90.541 155.454 90.6652 155.454 90.8308C155.454 90.9964 155.33 91.1206 155.165 91.1206Z" fill="#D1D3D4"/>
<path d="M151.275 91.1206H149.454C149.288 91.1206 149.164 90.9964 149.164 90.8308C149.164 90.6652 149.288 90.541 149.454 90.541H151.317C151.482 90.541 151.607 90.6652 151.607 90.8308C151.607 90.9964 151.441 91.1206 151.275 91.1206Z" fill="#D1D3D4"/>
<path d="M139.059 61.8098C138.894 61.8098 138.77 61.6856 138.77 61.52V59.657C138.77 59.4914 138.894 59.3672 139.059 59.3672C139.225 59.3672 139.349 59.4914 139.349 59.657V61.52C139.308 61.6856 139.184 61.8098 139.059 61.8098Z" fill="#D1D3D4"/>
<path d="M139.059 65.6594C138.894 65.6594 138.77 65.5352 138.77 65.3696V63.5066C138.77 63.341 138.894 63.2168 139.059 63.2168C139.225 63.2168 139.349 63.341 139.349 63.5066V65.3696C139.308 65.5766 139.184 65.6594 139.059 65.6594Z" fill="#D1D3D4"/>
<path d="M141.875 62.8452H140.012C139.847 62.8452 139.723 62.721 139.723 62.5554C139.723 62.3898 139.847 62.2656 140.012 62.2656H141.875C142.041 62.2656 142.165 62.3898 142.165 62.5554C142.165 62.721 142.041 62.8038 141.875 62.8452Z" fill="#D1D3D4"/>
<path d="M138.025 62.8452H136.204C136.038 62.8452 135.914 62.721 135.914 62.5554C135.914 62.3898 136.038 62.2656 136.204 62.2656H138.067C138.232 62.2656 138.357 62.3898 138.357 62.5554C138.357 62.721 138.232 62.8038 138.025 62.8452C138.067 62.8452 138.067 62.8452 138.025 62.8452Z" fill="#D1D3D4"/>
<path d="M71.334 70.5448C66.9042 70.5448 63.3438 66.9845 63.3438 62.5547C63.3438 58.1249 66.9042 54.5645 71.334 54.5645C75.7638 54.5645 79.3242 58.1249 79.3242 62.5547C79.3242 66.9431 75.7638 70.5034 71.334 70.5448ZM71.334 55.1027C67.2354 55.1027 63.9233 58.4147 63.9233 62.5133C63.9233 66.6119 67.2354 69.9238 71.334 69.9238C75.4326 69.9238 78.7445 66.6119 78.7445 62.5133C78.7445 58.4561 75.4326 55.1027 71.334 55.1027Z" fill="#D1D3D4"/>
<path d="M114.594 146.555C114.512 146.555 114.47 146.514 114.429 146.514C114.305 146.431 114.263 146.224 114.387 146.1C114.512 145.81 114.636 145.479 114.76 145.148C115.671 142.498 118.155 135.543 123.62 136.578C123.992 135.253 125.69 129.747 130.285 127.718C133.266 126.435 136.785 126.89 140.759 129.043C141.049 127.263 142.539 120.225 148.335 116.002C152.848 112.69 158.892 111.821 166.262 113.353C166.427 113.394 166.51 113.518 166.469 113.684C166.427 113.849 166.303 113.932 166.137 113.891C158.934 112.4 153.055 113.27 148.667 116.458C142.208 121.177 141.256 129.457 141.256 129.54C141.256 129.623 141.173 129.706 141.09 129.747C141.008 129.788 140.883 129.788 140.801 129.747C136.826 127.47 133.349 126.973 130.451 128.215C125.607 130.327 124.034 136.909 124.034 136.951C124.034 137.033 123.951 137.075 123.909 137.116C123.827 137.158 123.785 137.158 123.702 137.158C118.527 135.957 116.209 142.498 115.215 145.272C115.091 145.645 114.967 146.059 114.76 146.39C114.76 146.514 114.677 146.555 114.594 146.555Z" fill="#D1D3D4"/>
<path d="M90.2087 153.179C90.0017 153.179 89.9189 153.013 89.9189 152.848C89.9189 152.724 91.2437 141.049 85.9445 136.164C83.7917 134.176 80.7695 133.555 77.0021 134.301C76.9193 134.301 76.8365 134.301 76.7537 134.259C76.6709 134.218 76.6295 134.135 76.6295 134.052C76.6295 133.928 76.2569 123.081 69.3845 118.444C65.3687 115.753 59.9039 115.671 53.1557 118.237C53.0729 118.279 52.9487 118.237 52.8659 118.196C52.7831 118.113 52.7417 118.03 52.7831 117.906C52.7831 117.865 53.8181 113.104 51.2099 110.578C49.3883 108.84 46.2419 108.508 41.8535 109.668C41.6879 109.709 41.5223 109.626 41.5223 109.461C41.4809 109.295 41.5637 109.129 41.7293 109.088C46.3247 107.887 49.6781 108.219 51.6653 110.123C54.0251 112.4 53.7353 116.126 53.5283 117.492C60.2351 115.05 65.6999 115.174 69.7985 117.906C73.5245 120.39 75.3875 124.654 76.2569 127.759C76.7951 129.664 77.1263 131.651 77.2505 133.638C81.0593 132.934 84.1229 133.638 86.3585 135.708C91.9061 140.8 90.5813 152.392 90.5399 152.889C90.4571 153.055 90.3329 153.179 90.2087 153.179Z" fill="#D1D3D4"/>
<path d="M139.061 141.048C138.896 141.048 138.772 140.924 138.772 140.8C138.772 140.593 138.399 135.17 142.249 131.402C145.106 128.628 149.453 127.511 155.207 128.132C155.373 128.132 155.497 128.297 155.456 128.463C155.456 128.628 155.29 128.753 155.166 128.711C149.577 128.132 145.396 129.167 142.663 131.816C138.979 135.377 139.351 140.676 139.351 140.759C139.351 140.883 139.227 141.007 139.061 141.048Z" fill="#D1D3D4"/>
<path d="M61.8088 129.87C61.6846 129.87 61.6018 129.787 61.5604 129.704C54.5638 115.214 44.4208 119.768 44.2966 119.81C44.131 119.893 43.9654 119.81 43.924 119.686C43.8412 119.52 43.924 119.354 44.0482 119.313C44.1724 119.272 54.8536 114.469 62.0572 129.497C62.14 129.622 62.0572 129.829 61.933 129.87C61.8916 129.87 61.8502 129.87 61.8088 129.87Z" fill="#D1D3D4"/>
<path d="M116.42 155.001H90.5859L97.3341 115.506H109.671L116.42 155.001Z" fill="white"/>
<path d="M116.418 155.292H90.5429C90.4601 155.292 90.3773 155.251 90.3359 155.209C90.2945 155.126 90.2531 155.044 90.2945 154.961L97.0841 115.465C97.1255 115.341 97.2083 115.217 97.3739 115.217H109.67C109.794 115.217 109.918 115.3 109.959 115.465L116.749 154.961C116.749 155.044 116.749 155.126 116.708 155.209C116.583 155.251 116.501 155.292 116.418 155.292ZM90.9155 154.712H116.087L109.421 115.796H97.6223L90.9155 154.712Z" fill="#022602"/>
<path d="M104.99 131.238C104.825 131.238 104.701 131.114 104.701 130.99L104.121 123.579C104.121 123.414 104.245 123.289 104.369 123.248C104.535 123.248 104.659 123.331 104.659 123.496L105.239 130.907C105.28 131.073 105.156 131.238 104.99 131.238Z" fill="#022602"/>
<path d="M99.0281 135.545C98.8211 135.504 98.7383 135.379 98.7383 135.214L99.7319 127.389C99.7319 127.224 99.8975 127.099 100.063 127.141C100.229 127.141 100.353 127.306 100.311 127.472L99.3179 135.297C99.2765 135.421 99.1523 135.545 99.0281 135.545Z" fill="#022602"/>
<path d="M108.595 137.2C108.47 137.2 108.346 137.075 108.305 136.951L107.27 130.576C107.228 130.41 107.353 130.286 107.518 130.244C107.684 130.203 107.808 130.327 107.849 130.493L108.926 136.868C108.967 137.034 108.843 137.158 108.677 137.2H108.595Z" fill="#022602"/>
<path d="M110 121.757H96.6693L95.0547 115.34H111.615L110 121.757Z" fill="white"/>
<path d="M109.999 122.088H96.6271C96.5029 122.088 96.3787 122.006 96.3373 121.881L94.7227 115.464C94.7227 115.382 94.7227 115.299 94.7641 115.216C94.8055 115.133 94.8883 115.092 95.0125 115.092H111.572C111.655 115.092 111.738 115.133 111.821 115.216C111.862 115.299 111.904 115.382 111.862 115.464L110.248 121.881C110.248 121.964 110.165 122.047 109.999 122.088ZM96.8755 121.509H109.792L111.241 115.671H95.4265L96.8755 121.509Z" fill="#022602"/>
<path d="M88.3496 95.3438C88.3496 95.3438 81.353 99.7321 78.9104 107.019C76.4678 114.305 82.0154 128.422 82.0154 128.422L94.7666 114.595L88.3496 95.3438Z" fill="white"/>
<path d="M82.0561 128.671H81.9733C81.8905 128.671 81.8077 128.589 81.7663 128.506C81.5179 127.926 76.2187 114.223 78.6613 106.936C81.1039 99.6501 88.1419 95.1789 88.2247 95.0961C88.3075 95.0547 88.3903 95.0547 88.4731 95.0547C88.5559 95.0961 88.6387 95.1375 88.6387 95.2203L95.0557 114.471C95.0971 114.554 95.0557 114.678 95.0143 114.761L82.3045 128.547C82.2217 128.63 82.1389 128.671 82.0561 128.671ZM88.2247 95.7999C86.8585 96.7521 81.3109 100.851 79.1995 107.102C77.0881 113.519 81.2281 125.442 82.1389 127.843L94.4347 114.513L88.2247 95.7999Z" fill="#022602"/>
<path d="M118.655 95.3438C118.655 95.3438 125.652 99.7321 128.094 107.019C130.537 114.305 124.989 128.422 124.989 128.422L112.238 114.595L118.655 95.3438Z" fill="white"/>
<path d="M124.945 128.671C124.862 128.671 124.779 128.63 124.738 128.588L111.987 114.761C111.904 114.678 111.904 114.554 111.945 114.471L118.362 95.2199C118.404 95.1371 118.445 95.0543 118.528 95.0543C118.611 95.0129 118.693 95.0543 118.776 95.0957C118.859 95.1371 125.897 99.6083 128.34 106.936C130.782 114.264 125.442 127.967 125.235 128.505C125.193 128.588 125.11 128.671 125.028 128.671H124.945ZM112.525 114.512L124.821 127.843C125.731 125.4 129.913 113.477 127.76 107.102C125.69 100.85 120.142 96.7517 118.735 95.7995L112.525 114.512Z" fill="#022602"/>
<path d="M114.763 117.783C118.24 109.461 120.435 97.3724 120.435 83.9588C120.435 63.59 109.215 52.9916 104.951 49.721C103.999 48.9758 102.674 48.9758 101.722 49.721C97.4577 53.033 86.2383 63.6314 86.2383 83.9588C86.2383 97.3724 88.4325 109.461 91.9101 117.783C91.9101 117.783 95.3877 119.521 103.336 119.521C111.285 119.521 114.763 117.783 114.763 117.783Z" fill="#008000"/>
<path d="M101.722 49.721C96.5052 53.9024 92.4066 59.3258 89.8398 65.4944H116.874C114.307 59.3258 110.209 53.9024 104.951 49.721C104.04 48.9758 102.674 48.9758 101.722 49.721Z" fill="white"/>
<path d="M116.872 65.7842H89.8382C89.7554 65.7842 89.6312 65.7428 89.5898 65.66C89.5484 65.5772 89.507 65.4944 89.5484 65.3702C92.1566 59.1602 96.2552 53.654 101.554 49.4726C102.631 48.6446 104.08 48.6446 105.156 49.4726C110.455 53.654 114.554 59.1188 117.162 65.3702C117.204 65.453 117.204 65.5772 117.121 65.66C117.079 65.7428 116.955 65.7842 116.872 65.7842ZM90.2522 65.2046H116.417C113.85 59.243 109.876 53.9852 104.784 49.9694C103.914 49.307 102.755 49.307 101.886 49.9694C96.7934 53.9852 92.819 59.2016 90.2522 65.2046Z" fill="#022602"/>
<path d="M103.999 91.0375C109.761 91.0375 114.432 86.3665 114.432 80.6047C114.432 74.8428 109.761 70.1719 103.999 70.1719C98.2373 70.1719 93.5664 74.8428 93.5664 80.6047C93.5664 86.3665 98.2373 91.0375 103.999 91.0375Z" fill="white"/>
<path d="M104 91.328C98.0797 91.328 93.2773 86.5256 93.2773 80.6054C93.2773 74.6852 98.0797 69.8828 104 69.8828C109.92 69.8828 114.723 74.6852 114.723 80.6054C114.723 86.5256 109.92 91.328 104 91.328ZM104 70.4624C98.4109 70.4624 93.8569 75.0164 93.8569 80.6054C93.8569 86.1944 98.4109 90.7484 104 90.7484C109.589 90.7484 114.143 86.1944 114.143 80.6054C114.143 75.0164 109.63 70.4624 104 70.4624Z" fill="#022602"/>
<path d="M103.997 87.0633C107.564 87.0633 110.456 84.1718 110.456 80.6049C110.456 77.038 107.564 74.1465 103.997 74.1465C100.431 74.1465 97.5391 77.038 97.5391 80.6049C97.5391 84.1718 100.431 87.0633 103.997 87.0633Z" fill="#022602"/>
<path d="M104 87.3534C100.274 87.3534 97.293 84.3312 97.293 80.6052C97.293 76.8792 100.315 73.8984 104.041 73.8984C107.767 73.8984 110.748 76.9206 110.748 80.6052C110.748 84.3312 107.726 87.3534 104 87.3534ZM104 74.478C100.605 74.478 97.8726 77.2518 97.8726 80.6466C97.8726 84.0414 100.646 86.7738 104.041 86.7738C107.436 86.7738 110.168 84 110.168 80.6466C110.168 77.2104 107.395 74.478 104 74.478Z" fill="#022602"/>
<path d="M109.132 80.3149C109.008 80.3149 108.884 80.1907 108.842 80.0665C108.18 75.5539 104.205 75.7609 104.04 75.7609C103.874 75.7609 103.75 75.6367 103.75 75.5125C103.75 75.3469 103.874 75.2227 103.998 75.2227C104.04 75.2227 108.677 74.9743 109.422 80.0251C109.422 80.1493 109.339 80.2735 109.132 80.3149Z" fill="white"/>
<path d="M101.763 76.3827C101.68 76.3827 101.598 76.3413 101.515 76.2585C101.432 76.1343 101.432 75.9687 101.556 75.8445C101.929 75.5961 102.301 75.4305 102.757 75.3477C102.922 75.3477 103.047 75.4305 103.088 75.5961C103.129 75.7617 103.005 75.8859 102.84 75.9273C102.508 75.9687 102.177 76.0929 101.929 76.2999C101.887 76.3413 101.805 76.3827 101.763 76.3827Z" fill="white"/>
<path d="M113.519 115.008H113.436C113.271 114.967 113.188 114.801 113.271 114.636C115.092 108.922 116.541 103.085 117.618 97.1648C117.659 96.9992 117.825 96.9164 117.99 96.9578C118.115 96.9992 118.197 97.1234 118.197 97.2476C117.08 103.168 115.631 109.047 113.809 114.801C113.768 114.925 113.643 115.008 113.519 115.008Z" fill="white"/>
<path d="M147.426 151.565C121.261 175.495 80.7721 174.087 56.3047 148.419C56.7187 148.212 57.1741 148.005 57.5881 147.798C69.0559 143.12 75.3073 152.725 75.3073 152.725C75.3073 152.725 78.2881 136.951 96.5041 136.951C114.72 136.951 118.943 149.371 118.943 149.371C118.943 149.371 122.669 141.878 130.907 142.375C139.146 142.871 140.388 153.221 140.388 153.221C142.624 152.186 145.025 151.648 147.426 151.565Z" fill="white"/>
<path d="M103.499 168.911C85.5729 168.994 68.4333 161.625 56.1375 148.584C56.0547 148.501 56.0547 148.418 56.0547 148.335C56.0547 148.253 56.1375 148.17 56.2203 148.128C56.6757 147.88 57.1311 147.673 57.5451 147.507C63.5895 145.065 68.1849 146.555 70.9587 148.253C72.6147 149.246 74.0223 150.53 75.2229 152.02C76.0509 149.081 80.3979 136.619 96.5439 136.619C112.524 136.619 117.906 146.224 119.024 148.667C120.059 146.928 123.951 141.587 130.989 142.043C138.441 142.498 140.345 150.819 140.676 152.724C142.829 151.813 145.106 151.316 147.424 151.233C147.549 151.233 147.673 151.316 147.714 151.399C147.756 151.523 147.714 151.647 147.631 151.73C135.584 162.825 119.852 168.911 103.499 168.911ZM56.7999 148.46C80.9775 173.548 120.639 175.08 146.638 151.896C144.526 152.061 142.498 152.558 140.593 153.428C140.511 153.469 140.428 153.469 140.345 153.428C140.262 153.386 140.221 153.303 140.179 153.221C139.89 151.44 139.351 149.702 138.565 148.087C136.826 144.692 134.301 142.871 130.989 142.664C123.04 142.167 119.355 149.412 119.314 149.495C119.272 149.577 119.148 149.66 119.024 149.66C118.9 149.66 118.817 149.577 118.776 149.453C118.734 149.329 114.387 137.24 96.5853 137.24C78.7833 137.24 75.6783 152.641 75.6369 152.807C75.5955 152.931 75.5127 153.014 75.3885 153.014C75.2643 153.055 75.1401 152.972 75.0987 152.889C73.8981 151.233 72.3663 149.826 70.6275 148.749C66.7359 146.39 62.4303 146.183 57.7521 148.087C57.4209 148.17 57.1311 148.294 56.7999 148.46Z" fill="#022602"/>
<path d="M125.854 154.71C125.771 154.71 125.688 154.669 125.647 154.628C121.921 150.488 118.691 149.494 116.621 149.328C115.379 149.204 114.137 149.453 113.02 149.991C112.895 150.074 112.688 150.032 112.606 149.908C112.523 149.784 112.564 149.618 112.688 149.494C112.688 149.494 112.688 149.494 112.73 149.494C112.771 149.453 118.65 145.975 126.102 154.214C126.226 154.338 126.185 154.503 126.102 154.628C125.978 154.669 125.936 154.71 125.854 154.71Z" fill="#022602"/>
</svg>
