<svg width="207" height="207" viewBox="0 0 207 207" fill="none" xmlns="http://www.w3.org/2000/svg">
<path d="M168.627 103.499C168.627 139.476 139.482 168.622 103.505 168.622C67.5284 168.622 38.3828 139.476 38.3828 103.499C38.3828 67.5227 67.5284 38.3771 103.505 38.3771C139.357 38.2943 168.503 67.2743 168.627 103.127C168.627 103.251 168.627 103.375 168.627 103.499Z" fill="white"/>
<path d="M103.506 168.912C67.3635 168.912 38.0938 139.642 38.0938 103.5C38.0938 67.4405 67.4463 38.0879 103.506 38.0879C139.565 38.0879 168.918 67.4405 168.918 103.5C168.918 139.642 139.648 168.912 103.506 168.912ZM103.506 38.6675C67.7775 38.6675 38.6734 67.7303 38.6734 103.5C38.6734 139.311 67.6947 168.332 103.506 168.332C139.317 168.332 168.338 139.311 168.338 103.5C168.338 67.7717 139.234 38.6675 103.506 38.6675Z" fill="#4F031A"/>
<path d="M74.1882 84.4133C74.0226 84.4133 73.8984 84.2891 73.8984 84.1235V82.2605C73.8984 82.0949 74.0226 81.9707 74.1882 81.9707C74.3538 81.9707 74.478 82.0949 74.478 82.2605V84.1235C74.478 84.2891 74.3538 84.4133 74.1882 84.4133Z" fill="#D1D3D4"/>
<path d="M74.1882 88.2649C74.0226 88.2649 73.8984 88.1407 73.8984 87.9751V86.1121C73.8984 85.9465 74.0226 85.8223 74.1882 85.8223C74.3538 85.8223 74.478 85.9465 74.478 86.1121V87.9751C74.478 88.1407 74.3538 88.2649 74.1882 88.2649Z" fill="#D1D3D4"/>
<path d="M77.0434 85.4077H75.1804C75.0148 85.4077 74.8906 85.2835 74.8906 85.1179C74.8906 84.9523 75.0148 84.8281 75.1804 84.8281H77.0434C77.209 84.8281 77.3332 84.9523 77.3332 85.1179C77.3332 85.2835 77.209 85.4077 77.0434 85.4077Z" fill="#D1D3D4"/>
<path d="M73.1997 85.4077H71.3367C71.1711 85.4077 71.0469 85.2835 71.0469 85.1179C71.0469 84.9523 71.1711 84.8281 71.3367 84.8281H73.1997C73.3653 84.8281 73.4895 84.9523 73.4895 85.1179C73.4895 85.2835 73.3653 85.4077 73.1997 85.4077Z" fill="#D1D3D4"/>
<path d="M56.3445 92.0324C56.1789 92.0324 56.0547 91.9082 56.0547 91.7426V89.8796C56.0547 89.714 56.1789 89.5898 56.3445 89.5898C56.5101 89.5898 56.6343 89.714 56.6343 89.8796V91.7426C56.6343 91.9082 56.5101 92.0324 56.3445 92.0324Z" fill="#D1D3D4"/>
<path d="M56.3445 95.9231C56.1789 95.9231 56.0547 95.7989 56.0547 95.6333V93.7703C56.0547 93.6047 56.1789 93.4805 56.3445 93.4805C56.5101 93.4805 56.6343 93.6047 56.6343 93.7703V95.6333C56.6343 95.7989 56.4687 95.9231 56.3445 95.9231Z" fill="#D1D3D4"/>
<path d="M59.1997 93.0659H57.3367C57.1711 93.0659 57.0469 92.9417 57.0469 92.7761C57.0469 92.6105 57.1711 92.4863 57.3367 92.4863H59.1997C59.3653 92.4863 59.4895 92.6105 59.4895 92.7761C59.4895 92.9417 59.3653 93.0659 59.1997 93.0659Z" fill="#D1D3D4"/>
<path d="M55.3091 93.0659H53.4461C53.2805 93.0659 53.1562 92.9417 53.1562 92.7761C53.1562 92.6105 53.2805 92.4863 53.4461 92.4863H55.3091C55.4747 92.4863 55.5989 92.6105 55.5989 92.7761C55.5989 92.9417 55.4747 93.0659 55.3091 93.0659Z" fill="#D1D3D4"/>
<path d="M131.399 79.3215C131.234 79.3215 131.109 79.1973 131.109 79.0317V77.1687C131.109 77.0031 131.234 76.8789 131.399 76.8789C131.565 76.8789 131.689 77.0031 131.689 77.1687V79.0317C131.689 79.1559 131.565 79.2801 131.399 79.3215Z" fill="#D1D3D4"/>
<path d="M131.399 83.1731C131.234 83.1731 131.109 83.0489 131.109 82.8833V81.0203C131.109 80.8547 131.234 80.7305 131.399 80.7305C131.565 80.7305 131.689 80.8547 131.689 81.0203V82.8833C131.689 83.0489 131.565 83.1731 131.399 83.1731Z" fill="#D1D3D4"/>
<path d="M134.262 80.3159H132.399C132.234 80.3159 132.109 80.1917 132.109 80.0261C132.109 79.8605 132.234 79.7363 132.399 79.7363H134.262C134.428 79.7363 134.552 79.8605 134.552 80.0261C134.552 80.1917 134.428 80.3159 134.262 80.3159Z" fill="#D1D3D4"/>
<path d="M130.403 80.3159H128.54C128.374 80.3159 128.25 80.1917 128.25 80.0261C128.25 79.8605 128.374 79.7363 128.54 79.7363H130.403C130.568 79.7363 130.693 79.8605 130.693 80.0261C130.693 80.1917 130.568 80.3159 130.403 80.3159Z" fill="#D1D3D4"/>
<path d="M152.305 90.1281C152.14 90.1281 152.016 90.0039 152.016 89.8383V87.9753C152.016 87.8097 152.14 87.6855 152.305 87.6855C152.471 87.6855 152.595 87.8097 152.595 87.9753V89.8383C152.595 90.0039 152.43 90.1281 152.305 90.1281Z" fill="#D1D3D4"/>
<path d="M152.305 93.9778C152.14 93.9778 152.016 93.8536 152.016 93.688V91.825C152.016 91.6594 152.14 91.5352 152.305 91.5352C152.471 91.5352 152.595 91.6594 152.595 91.825V93.688C152.595 93.8536 152.471 93.9778 152.305 93.9778Z" fill="#D1D3D4"/>
<path d="M155.168 91.1206H153.305C153.14 91.1206 153.016 90.9964 153.016 90.8308C153.016 90.6652 153.14 90.541 153.305 90.541H155.168C155.334 90.541 155.458 90.6652 155.458 90.8308C155.458 90.9964 155.334 91.1206 155.168 91.1206Z" fill="#D1D3D4"/>
<path d="M151.275 91.1206H149.454C149.288 91.1206 149.164 90.9964 149.164 90.8308C149.164 90.6652 149.288 90.541 149.454 90.541H151.317C151.482 90.541 151.607 90.6652 151.607 90.8308C151.607 90.9964 151.441 91.1206 151.275 91.1206Z" fill="#D1D3D4"/>
<path d="M139.055 61.8098C138.89 61.8098 138.766 61.6856 138.766 61.52V59.657C138.766 59.4914 138.89 59.3672 139.055 59.3672C139.221 59.3672 139.345 59.4914 139.345 59.657V61.52C139.304 61.6856 139.18 61.8098 139.055 61.8098Z" fill="#D1D3D4"/>
<path d="M139.055 65.6594C138.89 65.6594 138.766 65.5352 138.766 65.3696V63.5066C138.766 63.341 138.89 63.2168 139.055 63.2168C139.221 63.2168 139.345 63.341 139.345 63.5066V65.3696C139.304 65.5766 139.18 65.6594 139.055 65.6594Z" fill="#D1D3D4"/>
<path d="M141.872 62.8452H140.009C139.843 62.8452 139.719 62.721 139.719 62.5554C139.719 62.3898 139.843 62.2656 140.009 62.2656H141.872C142.037 62.2656 142.161 62.3898 142.161 62.5554C142.161 62.721 142.037 62.8038 141.872 62.8452Z" fill="#D1D3D4"/>
<path d="M138.025 62.8452H136.204C136.038 62.8452 135.914 62.721 135.914 62.5554C135.914 62.3898 136.038 62.2656 136.204 62.2656H138.067C138.232 62.2656 138.357 62.3898 138.357 62.5554C138.357 62.721 138.232 62.8038 138.025 62.8452C138.067 62.8452 138.067 62.8452 138.025 62.8452Z" fill="#D1D3D4"/>
<path d="M71.334 70.5448C66.9042 70.5448 63.3438 66.9845 63.3438 62.5547C63.3438 58.1249 66.9042 54.5645 71.334 54.5645C75.7638 54.5645 79.3242 58.1249 79.3242 62.5547C79.3242 66.9431 75.7638 70.5034 71.334 70.5448ZM71.334 55.1027C67.2354 55.1027 63.9233 58.4147 63.9233 62.5133C63.9233 66.6119 67.2354 69.9238 71.334 69.9238C75.4326 69.9238 78.7445 66.6119 78.7445 62.5133C78.7445 58.4561 75.4326 55.1027 71.334 55.1027Z" fill="#D1D3D4"/>
<path d="M114.594 146.555C114.512 146.555 114.47 146.514 114.429 146.514C114.305 146.431 114.263 146.224 114.387 146.1C114.512 145.81 114.636 145.479 114.76 145.148C115.671 142.498 118.155 135.543 123.62 136.578C123.992 135.253 125.69 129.747 130.285 127.718C133.266 126.435 136.785 126.89 140.759 129.043C141.049 127.263 142.539 120.225 148.335 116.002C152.848 112.69 158.892 111.821 166.262 113.353C166.427 113.394 166.51 113.518 166.469 113.684C166.427 113.849 166.303 113.932 166.137 113.891C158.934 112.4 153.055 113.27 148.667 116.458C142.208 121.177 141.256 129.457 141.256 129.54C141.256 129.623 141.173 129.706 141.09 129.747C141.008 129.788 140.883 129.788 140.801 129.747C136.826 127.47 133.349 126.973 130.451 128.215C125.607 130.327 124.034 136.909 124.034 136.951C124.034 137.033 123.951 137.075 123.909 137.116C123.827 137.158 123.785 137.158 123.702 137.158C118.527 135.957 116.209 142.498 115.215 145.272C115.091 145.645 114.967 146.059 114.76 146.39C114.76 146.514 114.677 146.555 114.594 146.555Z" fill="#D1D3D4"/>
<path d="M90.2126 153.179C90.0056 153.179 89.9228 153.013 89.9228 152.848C89.9228 152.724 91.2476 141.049 85.9484 136.164C83.7956 134.176 80.7734 133.555 77.006 134.301C76.9232 134.301 76.8404 134.301 76.7576 134.259C76.6748 134.218 76.6334 134.135 76.6334 134.052C76.6334 133.928 76.2608 123.081 69.3884 118.444C65.3726 115.753 59.9078 115.671 53.1596 118.237C53.0768 118.279 52.9526 118.237 52.8698 118.196C52.787 118.113 52.7456 118.03 52.787 117.906C52.787 117.865 53.822 113.104 51.2138 110.578C49.3922 108.84 46.2458 108.508 41.8574 109.668C41.6918 109.709 41.5262 109.626 41.5262 109.461C41.4848 109.295 41.5676 109.129 41.7332 109.088C46.3286 107.887 49.682 108.219 51.6692 110.123C54.029 112.4 53.7392 116.126 53.5322 117.492C60.239 115.05 65.7038 115.174 69.8024 117.906C73.5284 120.39 75.3914 124.654 76.2608 127.759C76.799 129.664 77.1302 131.651 77.2544 133.638C81.0632 132.934 84.1268 133.638 86.3624 135.708C91.91 140.8 90.5852 152.392 90.5438 152.889C90.461 153.055 90.3368 153.179 90.2126 153.179Z" fill="#D1D3D4"/>
<path d="M139.065 141.048C138.9 141.048 138.775 140.924 138.775 140.8C138.775 140.593 138.403 135.17 142.253 131.402C145.11 128.628 149.457 127.511 155.211 128.132C155.377 128.132 155.501 128.297 155.46 128.463C155.46 128.628 155.294 128.753 155.17 128.711C149.581 128.132 145.399 129.167 142.667 131.816C138.982 135.377 139.355 140.676 139.355 140.759C139.355 140.883 139.231 141.007 139.065 141.048Z" fill="#D1D3D4"/>
<path d="M61.8088 129.87C61.6846 129.87 61.6018 129.787 61.5604 129.704C54.5638 115.214 44.4208 119.768 44.2966 119.81C44.131 119.893 43.9654 119.81 43.924 119.686C43.8412 119.52 43.924 119.354 44.0482 119.313C44.1724 119.272 54.8536 114.469 62.0572 129.497C62.14 129.622 62.0572 129.829 61.933 129.87C61.8916 129.87 61.8502 129.87 61.8088 129.87Z" fill="#D1D3D4"/>
<path d="M116.427 155.001H90.5938L97.342 115.506H109.679L116.427 155.001Z" fill="white"/>
<path d="M116.422 155.292H90.5468C90.464 155.292 90.3812 155.251 90.3398 155.209C90.2984 155.126 90.257 155.044 90.2984 154.961L97.088 115.465C97.1294 115.341 97.2122 115.217 97.3778 115.217H109.674C109.798 115.217 109.922 115.3 109.963 115.465L116.753 154.961C116.753 155.044 116.753 155.126 116.712 155.209C116.587 155.251 116.505 155.292 116.422 155.292ZM90.9194 154.712H116.091L109.425 115.796H97.6262L90.9194 154.712Z" fill="#4F031A"/>
<path d="M104.994 131.238C104.829 131.238 104.705 131.114 104.705 130.99L104.125 123.579C104.125 123.414 104.249 123.289 104.373 123.248C104.539 123.248 104.663 123.331 104.663 123.496L105.243 130.907C105.284 131.073 105.16 131.238 104.994 131.238Z" fill="#4F031A"/>
<path d="M99.032 135.545C98.825 135.504 98.7422 135.379 98.7422 135.214L99.7358 127.389C99.7358 127.224 99.9014 127.099 100.067 127.141C100.233 127.141 100.357 127.306 100.315 127.472L99.3218 135.297C99.2804 135.421 99.1562 135.545 99.032 135.545Z" fill="#4F031A"/>
<path d="M108.598 137.2C108.474 137.2 108.35 137.075 108.309 136.951L107.274 130.576C107.232 130.41 107.356 130.286 107.522 130.244C107.688 130.203 107.812 130.327 107.853 130.493L108.93 136.868C108.971 137.034 108.847 137.158 108.681 137.2H108.598Z" fill="#4F031A"/>
<path d="M109.992 121.757H96.6615L95.0469 115.34H111.607L109.992 121.757Z" fill="white"/>
<path d="M109.995 122.088H96.6231C96.4989 122.088 96.3747 122.006 96.3333 121.881L94.7188 115.464C94.7188 115.382 94.7187 115.299 94.7601 115.216C94.8015 115.133 94.8843 115.092 95.0085 115.092H111.569C111.651 115.092 111.734 115.133 111.817 115.216C111.858 115.299 111.9 115.382 111.858 115.464L110.244 121.881C110.244 121.964 110.161 122.047 109.995 122.088ZM96.8715 121.509H109.788L111.237 115.671H95.4225L96.8715 121.509Z" fill="#4F031A"/>
<path d="M88.3418 95.3438C88.3418 95.3438 81.3452 99.7321 78.9026 107.019C76.46 114.305 82.0076 128.422 82.0076 128.422L94.7588 114.595L88.3418 95.3438Z" fill="white"/>
<path d="M82.0522 128.671H81.9694C81.8866 128.671 81.8038 128.589 81.7624 128.506C81.514 127.926 76.2148 114.223 78.6574 106.936C81.1 99.6501 88.138 95.1789 88.2208 95.0961C88.3036 95.0547 88.3864 95.0547 88.4692 95.0547C88.552 95.0961 88.6348 95.1375 88.6348 95.2203L95.0518 114.471C95.0932 114.554 95.0518 114.678 95.0104 114.761L82.3006 128.547C82.2178 128.63 82.135 128.671 82.0522 128.671ZM88.2208 95.7999C86.8546 96.7521 81.307 100.851 79.1956 107.102C77.0842 113.519 81.2242 125.442 82.135 127.843L94.4308 114.513L88.2208 95.7999Z" fill="#4F031A"/>
<path d="M118.651 95.3438C118.651 95.3438 125.648 99.7321 128.091 107.019C130.533 114.305 124.986 128.422 124.986 128.422L112.234 114.595L118.651 95.3438Z" fill="white"/>
<path d="M124.941 128.671C124.858 128.671 124.775 128.63 124.734 128.588L111.983 114.761C111.9 114.678 111.9 114.554 111.941 114.471L118.358 95.2199C118.4 95.1371 118.441 95.0543 118.524 95.0543C118.607 95.0129 118.689 95.0543 118.772 95.0957C118.855 95.1371 125.893 99.6083 128.336 106.936C130.778 114.264 125.438 127.967 125.231 128.505C125.189 128.588 125.106 128.671 125.024 128.671H124.941ZM112.521 114.512L124.817 127.843C125.727 125.4 129.909 113.477 127.756 107.102C125.686 100.85 120.138 96.7517 118.731 95.7995L112.521 114.512Z" fill="#4F031A"/>
<path d="M114.759 117.783C118.237 109.461 120.431 97.3724 120.431 83.9588C120.431 63.59 109.211 52.9916 104.947 49.721C103.995 48.9758 102.67 48.9758 101.718 49.721C97.4538 53.033 86.2344 63.6314 86.2344 83.9588C86.2344 97.3724 88.4286 109.461 91.9062 117.783C91.9062 117.783 95.3838 119.521 103.333 119.521C111.281 119.521 114.759 117.783 114.759 117.783Z" fill="#FF0000"/>
<path d="M101.718 49.721C96.5013 53.9024 92.4027 59.3258 89.8359 65.4944H116.87C114.303 59.3258 110.205 53.9024 104.947 49.721C104.036 48.9758 102.67 48.9758 101.718 49.721Z" fill="white"/>
<path d="M116.872 65.7842H89.8382C89.7554 65.7842 89.6312 65.7428 89.5898 65.66C89.5484 65.5772 89.507 65.4944 89.5484 65.3702C92.1566 59.1602 96.2552 53.654 101.554 49.4726C102.631 48.6446 104.08 48.6446 105.156 49.4726C110.455 53.654 114.554 59.1188 117.162 65.3702C117.204 65.453 117.204 65.5772 117.121 65.66C117.079 65.7428 116.955 65.7842 116.872 65.7842ZM90.2522 65.2046H116.417C113.85 59.243 109.876 53.9852 104.784 49.9694C103.914 49.307 102.755 49.307 101.886 49.9694C96.7934 53.9852 92.819 59.2016 90.2522 65.2046Z" fill="#4F031A"/>
<path d="M103.995 91.0375C109.757 91.0375 114.428 86.3665 114.428 80.6047C114.428 74.8428 109.757 70.1719 103.995 70.1719C98.2334 70.1719 93.5625 74.8428 93.5625 80.6047C93.5625 86.3665 98.2334 91.0375 103.995 91.0375Z" fill="white"/>
<path d="M103.996 91.328C98.0758 91.328 93.2734 86.5256 93.2734 80.6054C93.2734 74.6852 98.0758 69.8828 103.996 69.8828C109.916 69.8828 114.719 74.6852 114.719 80.6054C114.719 86.5256 109.916 91.328 103.996 91.328ZM103.996 70.4624C98.407 70.4624 93.853 75.0164 93.853 80.6054C93.853 86.1944 98.407 90.7484 103.996 90.7484C109.585 90.7484 114.139 86.1944 114.139 80.6054C114.139 75.0164 109.626 70.4624 103.996 70.4624Z" fill="#4F031A"/>
<path d="M103.99 87.0633C107.557 87.0633 110.448 84.1718 110.448 80.6049C110.448 77.038 107.557 74.1465 103.99 74.1465C100.423 74.1465 97.5312 77.038 97.5312 80.6049C97.5312 84.1718 100.423 87.0633 103.99 87.0633Z" fill="#4F031A"/>
<path d="M103.996 87.3534C100.27 87.3534 97.2891 84.3312 97.2891 80.6052C97.2891 76.8792 100.311 73.8984 104.037 73.8984C107.763 73.8984 110.744 76.9206 110.744 80.6052C110.744 84.3312 107.722 87.3534 103.996 87.3534ZM103.996 74.478C100.601 74.478 97.8687 77.2518 97.8687 80.6466C97.8687 84.0414 100.642 86.7738 104.037 86.7738C107.432 86.7738 110.164 84 110.164 80.6466C110.164 77.2104 107.391 74.478 103.996 74.478Z" fill="#4F031A"/>
<path d="M109.132 80.3149C109.008 80.3149 108.884 80.1907 108.842 80.0665C108.18 75.5539 104.205 75.7609 104.04 75.7609C103.874 75.7609 103.75 75.6367 103.75 75.5125C103.75 75.3469 103.874 75.2227 103.998 75.2227C104.04 75.2227 108.677 74.9743 109.422 80.0251C109.422 80.1493 109.339 80.2735 109.132 80.3149Z" fill="white"/>
<path d="M101.759 76.3827C101.676 76.3827 101.594 76.3413 101.511 76.2585C101.428 76.1343 101.428 75.9687 101.552 75.8445C101.925 75.5961 102.297 75.4305 102.753 75.3477C102.918 75.3477 103.043 75.4305 103.084 75.5961C103.125 75.7617 103.001 75.8859 102.836 75.9273C102.504 75.9687 102.173 76.0929 101.925 76.2999C101.883 76.3413 101.801 76.3827 101.759 76.3827Z" fill="white"/>
<path d="M113.515 115.008H113.432C113.267 114.967 113.184 114.801 113.267 114.636C115.088 108.922 116.537 103.085 117.614 97.1648C117.655 96.9992 117.821 96.9164 117.986 96.9578C118.111 96.9992 118.193 97.1234 118.193 97.2476C117.076 103.168 115.627 109.047 113.805 114.801C113.764 114.925 113.639 115.008 113.515 115.008Z" fill="white"/>
<path d="M147.426 151.565C121.261 175.495 80.7721 174.087 56.3047 148.419C56.7187 148.212 57.1741 148.005 57.5881 147.798C69.0559 143.12 75.3073 152.725 75.3073 152.725C75.3073 152.725 78.2881 136.951 96.5041 136.951C114.72 136.951 118.943 149.371 118.943 149.371C118.943 149.371 122.669 141.878 130.907 142.375C139.146 142.871 140.388 153.221 140.388 153.221C142.624 152.186 145.025 151.648 147.426 151.565Z" fill="white"/>
<path d="M103.499 168.911C85.5729 168.994 68.4333 161.625 56.1375 148.584C56.0547 148.501 56.0547 148.418 56.0547 148.335C56.0547 148.253 56.1375 148.17 56.2203 148.128C56.6757 147.88 57.1311 147.673 57.5451 147.507C63.5895 145.065 68.1849 146.555 70.9587 148.253C72.6147 149.246 74.0223 150.53 75.2229 152.02C76.0509 149.081 80.3979 136.619 96.5439 136.619C112.524 136.619 117.906 146.224 119.024 148.667C120.059 146.928 123.951 141.587 130.989 142.043C138.441 142.498 140.345 150.819 140.676 152.724C142.829 151.813 145.106 151.316 147.424 151.233C147.549 151.233 147.673 151.316 147.714 151.399C147.756 151.523 147.714 151.647 147.631 151.73C135.584 162.825 119.852 168.911 103.499 168.911ZM56.7999 148.46C80.9775 173.548 120.639 175.08 146.638 151.896C144.526 152.061 142.498 152.558 140.593 153.428C140.511 153.469 140.428 153.469 140.345 153.428C140.262 153.386 140.221 153.303 140.179 153.221C139.89 151.44 139.351 149.702 138.565 148.087C136.826 144.692 134.301 142.871 130.989 142.664C123.04 142.167 119.355 149.412 119.314 149.495C119.272 149.577 119.148 149.66 119.024 149.66C118.9 149.66 118.817 149.577 118.776 149.453C118.734 149.329 114.387 137.24 96.5853 137.24C78.7833 137.24 75.6783 152.641 75.6369 152.807C75.5955 152.931 75.5127 153.014 75.3885 153.014C75.2643 153.055 75.1401 152.972 75.0987 152.889C73.8981 151.233 72.3663 149.826 70.6275 148.749C66.7359 146.39 62.4303 146.183 57.7521 148.087C57.4209 148.17 57.1311 148.294 56.7999 148.46Z" fill="#4F031A"/>
<path d="M125.854 154.71C125.771 154.71 125.688 154.669 125.647 154.628C121.921 150.488 118.691 149.494 116.621 149.328C115.379 149.204 114.137 149.453 113.02 149.991C112.895 150.074 112.688 150.032 112.606 149.908C112.523 149.784 112.564 149.618 112.688 149.494C112.688 149.494 112.688 149.494 112.73 149.494C112.771 149.453 118.65 145.975 126.102 154.214C126.226 154.338 126.185 154.503 126.102 154.628C125.978 154.669 125.936 154.71 125.854 154.71Z" fill="#4F031A"/>
</svg>
