<svg width="31" height="31" viewBox="0 0 31 31" fill="none" xmlns="http://www.w3.org/2000/svg">
<circle cx="15.5" cy="15.5" r="14.5" fill="white" stroke="#FF0000"/>
<g clip-path="url(#clip0_9908_144855)">
<path d="M11.4103 13.6411H20.3334V20.8911C20.3334 21.039 20.2746 21.1808 20.17 21.2854C20.0655 21.39 19.9236 21.4488 19.7757 21.4488H11.968C11.8201 21.4488 11.6782 21.39 11.5737 21.2854C11.4691 21.1808 11.4103 21.039 11.4103 20.8911V13.6411ZM12.5257 14.7565V20.3334H19.218V14.7565H12.5257ZM14.1988 15.8718H15.3142V19.218H14.1988V15.8718ZM16.4295 15.8718H17.5449V19.218H16.4295V15.8718ZM13.0834 11.968V10.8526C13.0834 10.7047 13.1421 10.5629 13.2467 10.4583C13.3513 10.3537 13.4932 10.2949 13.6411 10.2949H18.1026C18.2505 10.2949 18.3924 10.3537 18.497 10.4583C18.6015 10.5629 18.6603 10.7047 18.6603 10.8526V11.968H21.4488V13.0834H10.2949V11.968H13.0834ZM14.1988 11.4103V11.968H17.5449V11.4103H14.1988Z" fill="#FF0000"/>
</g>
<defs>
<clipPath id="clip0_9908_144855">
<rect width="13.3846" height="13.3846" fill="white" transform="translate(9.17969 9.17969)"/>
</clipPath>
</defs>
</svg>
