<svg width="28" height="28" viewBox="0 0 28 28" fill="none" xmlns="http://www.w3.org/2000/svg">
<g id="Group">
<path id="Vector" d="M25.8559 6.5987C24.9652 6.99268 24.0206 7.25142 23.0535 7.36637C24.0729 6.75671 24.8358 5.79722 25.2002 4.6667C24.2435 5.23604 23.1947 5.63504 22.1015 5.85087C21.3672 5.06521 20.3939 4.54416 19.333 4.36872C18.272 4.19328 17.1828 4.37328 16.2347 4.88073C15.2865 5.38819 14.5326 6.19467 14.0902 7.17479C13.6477 8.15492 13.5414 9.25378 13.7878 10.3005C11.8478 10.2033 9.9499 9.69915 8.21735 8.82081C6.4848 7.94248 4.95633 6.70959 3.73118 5.2022C3.29752 5.94706 3.06963 6.7938 3.07085 7.6557C3.07085 9.34737 3.93185 10.8419 5.24085 11.7169C4.46619 11.6925 3.70859 11.4833 3.03118 11.1067V11.1674C3.03142 12.294 3.42128 13.3859 4.13467 14.2579C4.84806 15.13 5.84108 15.7284 6.94535 15.9519C6.22623 16.1467 5.47221 16.1755 4.74035 16.0359C5.0517 17.0056 5.65852 17.8538 6.47587 18.4615C7.29322 19.0692 8.28017 19.4061 9.29852 19.425C8.28641 20.2199 7.12756 20.8075 5.88821 21.1542C4.64886 21.501 3.35333 21.6 2.07568 21.4457C4.306 22.88 6.9023 23.6415 9.55402 23.639C18.5292 23.639 23.4374 16.2039 23.4374 9.7557C23.4374 9.5457 23.4315 9.33337 23.4222 9.1257C24.3775 8.43523 25.202 7.57989 25.857 6.59987L25.8559 6.5987Z" fill="white"/>
</g>
</svg>
