<svg width="115" height="155" viewBox="0 0 115 155" fill="none" xmlns="http://www.w3.org/2000/svg">
<path d="M109.017 103.081H64.7406L49.3972 51.9152H96.7438C99.0037 51.9152 100.993 53.3956 101.644 55.561L113.921 96.4935C114.906 99.7777 112.449 103.081 109.021 103.081H109.017Z" fill="url(#paint0_linear_6_753)"/>
<path d="M62.7623 7.33697L49.3934 51.9152H5.11696C1.68913 51.9152 -0.768554 48.612 0.216804 45.3278L12.4938 4.39527C13.1444 2.22991 15.1341 0.749557 17.394 0.749557H57.8659C61.2938 0.749557 63.7514 4.05278 62.7661 7.33697H62.7623Z" fill="url(#paint1_linear_6_753)"/>
<path d="M17.394 103.081H64.7406L50.4891 150.601C49.8385 152.766 47.8488 154.247 45.5889 154.247H5.11696C1.68913 154.247 -0.768554 150.943 0.216804 147.659L12.4938 106.727C13.1444 104.561 15.1341 103.081 17.394 103.081Z" fill="url(#paint2_linear_6_753)"/>
<defs>
<linearGradient id="paint0_linear_6_753" x1="-3.79687" y1="-46.1958" x2="132.079" y2="149.408" gradientUnits="userSpaceOnUse">
<stop stop-color="#00A9B7"/>
<stop offset="0.5" stop-color="#4C32F2"/>
<stop offset="1" stop-color="#9F00BE"/>
</linearGradient>
<linearGradient id="paint1_linear_6_753" x1="-13.9586" y1="-39.1365" x2="121.913" y2="156.467" gradientUnits="userSpaceOnUse">
<stop stop-color="#00A9B7"/>
<stop offset="0.5" stop-color="#4C32F2"/>
<stop offset="1" stop-color="#9F00BE"/>
</linearGradient>
<linearGradient id="paint2_linear_6_753" x1="-60.4721" y1="-6.82733" x2="75.4036" y2="188.776" gradientUnits="userSpaceOnUse">
<stop stop-color="#00A9B7"/>
<stop offset="0.5" stop-color="#4C32F2"/>
<stop offset="1" stop-color="#9F00BE"/>
</linearGradient>
</defs>
</svg>
